<svg width="236" height="97" viewBox="0 0 236 97" fill="none" xmlns="http://www.w3.org/2000/svg">
<path fill-rule="evenodd" clip-rule="evenodd" d="M14.79 73.59C15.1 73.67 15.3 73.88 15.3 74.27V79.44C15.3 79.92 15.19 80.11 14.79 80.2V80.54H16.82C17.15 80.54 16.85 80.57 17.07 80.46C17.02 80.02 17.06 80.33 16.77 80.08C16.61 79.94 16.56 79.88 16.56 79.61V74.27C16.56 73.89 16.76 73.68 17.07 73.59V73.33H14.78V73.59H14.79ZM99.93 74.44V79.53C99.93 80.23 99.46 79.98 99.34 80.46C99.66 80.64 101.02 80.54 101.46 80.54C101.79 80.54 101.49 80.57 101.71 80.46C101.65 79.89 101.2 80.3 101.2 79.61V74.18C101.2 73.78 101.38 73.66 101.71 73.59V73.33H99.34C99.47 73.81 99.93 73.53 99.93 74.43V74.44ZM27.76 73.59C28.09 73.67 28.27 73.78 28.27 74.18V79.61C28.27 80.3 27.82 79.89 27.76 80.46C28.08 80.64 29.44 80.54 29.88 80.54C30.2 80.54 29.91 80.57 30.13 80.46C30 79.98 29.53 80.19 29.53 79.53V74.44C29.53 74.16 29.58 73.95 29.72 73.78C30 73.45 30.01 73.75 30.12 73.33H27.75V73.59H27.76ZM87.89 86.98C88 87.4 88.01 87.09 88.29 87.43C88.43 87.59 88.48 87.81 88.48 88.09V93.01C88.48 93.53 88.31 93.76 87.88 93.86V94.12H90.25V93.86C89.92 93.78 89.74 93.67 89.74 93.27V87.84C89.74 87.46 89.89 87.28 90.25 87.25V86.99C89.98 86.84 87.98 86.86 87.88 86.99L87.89 86.98ZM170.83 87.24C171.19 87.27 171.34 87.45 171.34 87.83V93.26C171.34 93.66 171.16 93.78 170.83 93.85V94.11H173.2V93.85C172.77 93.75 172.61 93.53 172.61 93V88.08C172.61 87.18 173.07 87.46 173.2 86.98C172.88 86.8 171.52 86.9 171.08 86.9C170.84 86.9 170.83 87 170.83 87.24ZM214.75 73.59C215.27 73.71 215.35 74.05 215.35 74.86V79.01C215.35 79.6 215.32 80.15 214.75 80.2V80.45C215.07 80.63 216.43 80.53 216.87 80.53C217.19 80.53 216.9 80.56 217.12 80.45V80.2C216.85 80.18 216.61 80.05 216.61 79.78V74.18C216.61 73.78 216.79 73.66 217.12 73.59V73.33H214.74V73.59H214.75ZM174.73 86.98C174.79 87.55 175.24 87.14 175.24 87.83V93.6C175.24 94.3 175.03 95.02 174.61 95.52C174.31 95.87 174.26 95.59 174.22 96.06C174.97 96.04 175.71 95.4 176.04 94.91C176.92 93.63 176.31 89.49 176.53 87.94C176.64 87.1 176.98 87.47 177.11 86.99C176.84 86.84 174.84 86.86 174.73 86.99V86.98ZM81.27 87.24C81.59 87.31 81.78 87.48 81.78 87.92V93.18C81.78 93.56 81.58 93.78 81.27 93.86V94.12H86.7C86.7 93.48 86.91 93.01 86.96 92.42H86.7C86.6 92.85 86.29 93.35 85.77 93.35H83.06V87.84C83.06 87.44 83.24 87.32 83.57 87.25V86.91H81.28V87.25L81.27 87.24ZM207.21 75.03C207.54 74.94 207.43 74.91 207.6 74.58C207.91 73.99 208.26 74.18 209.75 74.18V79.78C209.75 80.05 209.51 80.18 209.24 80.2V80.45C209.56 80.63 210.92 80.53 211.36 80.53C211.68 80.53 211.39 80.56 211.61 80.45C211.48 79.97 211.02 80.18 211.02 79.52V74.18C213.08 74.18 212.91 74.01 213.32 74.77C213.49 75.08 213.28 74.93 213.57 75.03C213.72 74.73 213.52 73.76 213.49 73.33H207.3C207.3 74.03 207.22 74.37 207.22 75.03H207.21ZM37.94 75.03C38.14 74.96 38.06 75 38.17 74.83C38.66 74.1 37.95 74.18 40.48 74.18V79.52C40.48 79.79 40.4 79.91 40.25 80.05C39.95 80.33 39.99 80.05 39.89 80.45C40.21 80.63 41.57 80.53 42.01 80.53C42.34 80.53 42.04 80.56 42.27 80.45V80.2C42 80.18 41.76 80.05 41.76 79.78V74.18C43.25 74.18 43.6 73.99 43.91 74.58C44.08 74.91 43.97 74.94 44.31 75.03C44.31 74.37 44.22 74.03 44.22 73.33H38.03C38.02 73.79 37.79 74.71 37.95 75.03H37.94ZM52.19 73.59C52.78 73.64 53.42 74.8 53.94 75.49C55.72 77.85 55.42 77.1 55.42 79.78C55.42 80.05 55.18 80.18 54.91 80.2V80.45C55.23 80.63 56.59 80.53 57.03 80.53C57.35 80.53 57.06 80.56 57.28 80.45C57.15 79.97 56.69 80.25 56.69 79.35C56.69 76.73 56.38 77.72 58.18 75.41C58.57 74.9 59.31 73.72 59.91 73.58V73.32H57.87V73.58L58.21 73.67C58.21 74.05 58.25 73.91 57.81 74.44C57.62 74.67 57.46 74.88 57.28 75.1C57.1 75.33 56.94 75.52 56.76 75.77C56.63 75.95 56.33 76.35 56.18 76.46C55.64 75.65 54.76 74.59 54.31 73.75C54.58 73.57 54.37 73.61 54.73 73.58V73.32H52.19V73.58V73.59ZM72.79 73.33V73.59C73.1 73.67 73.3 73.88 73.3 74.27V79.61C73.3 80.3 72.85 79.89 72.79 80.46C73.11 80.64 74.47 80.54 74.91 80.54C75.24 80.54 74.94 80.57 75.17 80.46C75.04 79.98 74.58 80.19 74.58 79.53V77.32C76.6 77.32 76.99 77.08 77.21 78H77.46V75.88H77.21C76.99 76.81 76.46 76.56 74.58 76.56V74.1H77.38C77.87 74.1 78.02 74.41 78.06 74.86H78.32C78.32 74.42 78.52 73.35 78.41 73.24C78.1 72.93 78.54 73.31 77.73 73.34H72.81L72.79 73.33ZM111.97 86.98C112.1 87.46 112.56 87.18 112.56 88.08V93C112.56 93.79 112.24 93.65 111.97 94.02C112.42 94.24 113.71 94.11 114.35 94.11V93.85C114.12 93.79 113.84 93.61 113.84 93.34V90.97H115.96C116.48 90.97 116.1 91.5 116.64 91.65V89.45C116.21 89.61 116.42 90.21 115.71 90.21H113.84V87.75H116.81C117.29 87.75 117.08 88.37 117.49 88.51C117.6 88.28 117.66 87.21 117.66 86.81C117.21 86.85 116.88 86.9 116.3 86.9C115.4 86.9 112.37 86.79 111.97 86.98ZM91.54 90.21C91.54 91.08 91.5 91.4 91.89 92.23C92.13 92.74 92.27 92.85 92.66 93.24C93.78 94.37 95.73 94.52 97.15 94.04C97.56 93.9 97.89 93.7 98.24 93.52C98.24 93.07 98.32 92.28 98.41 91.91C97.8 91.96 98.4 92.09 97.41 92.95C95.98 94.2 92.98 93.35 92.98 90.89V90.13C92.98 87.32 96.95 86.93 97.76 88.49C97.96 88.87 97.79 88.93 98.15 89.03C98.15 88.61 98.22 88.61 98.24 88.18C98.24 87.88 98.24 87.55 98.24 87.24C97.51 87.3 98.19 87.32 97.25 87.04C96.84 86.92 96.58 86.85 96.12 86.82C94.6 86.73 93.23 86.96 92.28 88.24C91.92 88.73 91.54 89.41 91.54 90.22V90.21ZM91.11 76.81C91.11 78.45 91.95 79.81 93.41 80.36C95.71 81.23 97.24 80.08 97.81 79.94C97.81 79.39 97.98 78.82 97.98 78.25C97.28 78.44 97.7 79.86 95.01 79.86C93.73 79.86 92.55 78.52 92.55 77.15V76.64C92.55 73.63 96.44 73.34 97.3 74.77C97.58 75.24 97.39 75.24 97.73 75.36L97.9 73.58C96.96 73.6 97.83 73.69 96.75 73.37C94.16 72.6 91.11 73.8 91.11 76.8V76.81ZM119.44 76.64C119.44 78.44 120.18 79.74 121.68 80.34C123.97 81.26 125.58 80.08 126.14 79.95C126.14 79.44 126.38 78.58 126.23 78.26C125.5 78.75 125.83 79.87 123.35 79.87C122.13 79.87 120.89 78.68 120.89 77.07V76.56C120.89 74.52 123.27 73.24 125.16 74.33C125.97 74.79 125.55 75.24 126.06 75.38C126.21 75.07 126.12 74.08 126.23 73.6C125.35 73.62 126.13 73.72 125.07 73.4C123.14 72.82 120.77 73.27 119.84 75.18C119.66 75.54 119.45 76.16 119.45 76.65L119.44 76.64ZM198.9 79.86C198.9 79.21 198.99 78.91 198.99 78.25C198.64 78.34 198.74 78.45 198.56 78.76C198.04 79.63 197.15 79.87 196.19 79.87C195.29 79.87 194.76 79.44 194.3 78.96C192.95 77.57 193.41 73.93 196.36 73.93C197.42 73.93 198.49 74.44 198.57 75.37H198.82C198.82 74.7 198.9 74.31 198.9 73.59C198.45 73.63 198.77 73.71 198.39 73.59C197.08 73.18 197.42 73.16 195.85 73.16C191.45 73.16 190.72 79.72 195.15 80.56C196.58 80.83 197.94 80.51 198.91 79.86H198.9ZM64.57 86.98C64.75 87.64 65.17 86.66 65.16 89.02C65.16 89.73 65.1 91.15 65.22 91.67C65.96 94.73 68.99 94.81 70.35 93.45C70.48 93.32 70.77 92.88 70.87 92.7C71.62 91.3 71.08 88.82 71.31 87.79C71.47 87.09 71.74 87.46 71.86 86.98C71.55 86.8 70.34 86.9 69.91 86.9V87.24C70.29 87.34 70.42 87.62 70.42 88.09C70.42 89.94 70.74 92.26 69.28 93.23C68.09 94.02 66.43 93.21 66.43 90.29C66.43 89.55 66.3 87.81 66.62 87.43C66.9 87.1 66.91 87.4 67.02 86.98C66.75 86.83 64.67 86.85 64.56 86.98H64.57ZM184.05 73.59C185.1 73.87 184.21 76.22 184.73 78.26C185.06 79.55 186.13 80.65 187.63 80.68C189.18 80.71 190.27 79.63 190.59 78.34C190.79 77.54 190.76 76.79 190.76 75.79C190.76 74.87 190.54 73.78 191.27 73.59V73.33H189.32V73.59C189.65 73.67 189.83 73.78 189.83 74.18C189.83 75.66 190.06 78.06 189.34 79.03C188.11 80.66 185.93 79.88 185.93 77.07V74.19C185.93 73.79 186.11 73.67 186.44 73.6V73.34H184.06V73.6L184.05 73.59ZM57.53 87.24C57.89 87.27 58.04 87.45 58.04 87.83V93.26C58.04 93.66 57.86 93.78 57.53 93.85V94.11H59.9C59.77 93.63 59.31 93.91 59.31 93.01V90.89C60.8 90.89 62.29 91.13 63.19 90.36C63.95 89.71 64.79 86.9 60.75 86.9H57.78C57.54 86.9 57.52 87 57.52 87.24H57.53ZM61.43 90.12H59.31V88C59.31 87.56 60.21 87.74 61.43 87.74C62.65 87.74 62.65 90.12 61.43 90.12ZM164.64 86.98C164.73 87.31 164.74 87.16 165.23 87.49C165.21 87.78 162.74 93.13 162.41 93.49C162.07 93.86 161.86 93.71 161.75 94.11H164.13V93.85C162.93 93.57 164.05 92.54 164.22 91.81H167.27C167.86 92.93 168.28 93.63 167.36 93.85V94.11H170.24V93.85C169.38 93.78 169.01 92.32 168.57 91.45C168.39 91.09 168.3 90.9 168.14 90.52L166.84 87.75C166.32 86.72 166.85 86.9 164.89 86.9C164.79 86.9 164.66 86.96 164.64 86.98ZM165.82 88.51C165.94 89.02 166.8 90.52 166.84 90.97H164.63C164.73 90.77 164.78 90.58 164.88 90.37C165.07 89.99 165.56 88.69 165.81 88.5L165.82 88.51ZM140.13 73.59C140.53 73.68 140.45 73.74 140.72 73.93L139.11 77.32C138.68 78.19 138.21 79.62 137.54 80.08C137.16 80.34 137.29 80.04 137.24 80.46C137.57 80.64 139.07 80.54 139.53 80.54V80.2C138.35 79.92 139.55 78.9 139.61 78.16H142.75C142.85 78.58 143.34 79.43 143.34 79.6C143.34 80.26 142.88 79.94 142.75 80.45C143.09 80.64 144.88 80.53 145.38 80.53C145.71 80.53 145.41 80.56 145.64 80.45V80.2C144.78 80.13 144.16 78.06 143.61 76.98L141.91 73.33H140.13V73.59ZM141.14 74.86C141.38 75.03 141.63 75.75 141.77 76.1C141.94 76.49 142.24 77.02 142.33 77.41H140.04C140.15 76.95 141.01 75.45 141.14 74.87V74.86ZM202.88 73.84C202.84 74.26 202.08 75.79 201.8 76.33L200.61 78.87C200.33 79.43 200.14 80.05 199.48 80.2V80.54H201.51C201.84 80.54 201.54 80.57 201.77 80.46C201.7 79.85 201.26 80.34 201.26 79.7C201.26 79.37 201.75 78.63 201.85 78.17H204.9C205.32 78.97 206.08 80.11 204.98 80.21V80.46C205.31 80.65 207.11 80.54 207.61 80.54C207.94 80.54 207.64 80.57 207.86 80.46V80.21C207.16 80.15 206.92 79.36 206.64 78.8L204.12 73.34H202.26C202.33 73.61 202.26 73.47 202.48 73.63C202.58 73.7 202.75 73.78 202.85 73.85L202.88 73.84ZM203.48 74.86C203.55 75.18 204.49 76.99 204.58 77.4H202.29L202.86 76.1C203.06 75.71 203.2 75.18 203.48 74.86ZM103.32 73.33V73.59C103.62 73.67 103.83 73.88 103.83 74.27V79.44C103.83 79.92 103.72 80.11 103.32 80.2V80.54H108.83C109.29 80.54 109.14 79.34 109.42 78.76C108.81 78.81 108.97 79.69 108.15 79.69H105.35C105.15 79.69 105.1 79.63 105.1 79.44V77.24H107.3C107.54 77.24 107.52 77.34 107.6 77.53C107.74 77.87 107.46 77.8 107.89 77.92C107.98 77.72 108.06 76.09 108.06 75.72H107.81C107.73 76.67 107.24 76.4 105.1 76.4V74.11H107.81C108.48 74.11 108.69 74.43 108.74 75.04H109C109 74.69 109.15 73.35 109.11 73.28C108.96 72.95 109.11 73.32 108.41 73.35H103.32V73.33ZM180.58 87.24C181.64 87.33 180.84 88.18 180.62 88.72L179.36 91.45C179.21 91.8 179.07 92.02 178.92 92.36C178.63 92.99 178.42 93.69 177.7 93.86V94.12H180.07C179.93 93.6 179.48 93.87 179.48 93.36C179.48 92.88 180.03 92.39 180.07 91.83H183.21C183.39 92.62 184.43 93.58 183.21 93.87V94.13H186.09V93.87C185.69 93.78 185.52 93.59 185.32 93.28L182.48 87.21C182.25 86.75 181.87 86.91 180.57 86.91V87.25L180.58 87.24ZM181.6 88.51C181.92 88.75 182.57 90.51 182.79 90.97H180.5C180.72 90.56 180.87 90.22 181.07 89.76C181.25 89.34 181.5 88.96 181.6 88.51ZM127.66 73.33C127.77 73.75 127.78 73.44 128.06 73.78C128.2 73.95 128.25 74.16 128.25 74.44V79.36C128.25 80.26 127.79 79.98 127.66 80.46C128.01 80.66 132.49 80.54 133.26 80.54C133.58 80.54 133.55 80.1 133.6 79.78C133.65 79.44 133.76 79.11 133.77 78.76H133.52C133.42 79.19 133.11 79.69 132.59 79.69H129.54V77.23C131.91 77.23 132.07 76.99 132.08 77.91H132.33L132.5 75.71H132.24C132.02 76.64 131.81 76.39 129.53 76.39V74.1H132.33C132.62 74.1 132.82 74.21 132.96 74.4C133.25 74.81 132.94 74.89 133.35 75.03C133.47 74.77 133.52 73.61 133.52 73.17C133.14 73.27 133.45 73.29 133.01 73.34H127.67L127.66 73.33ZM131.9 88.6C132.61 88.41 131.77 87.74 133.51 87.75C134.33 87.75 135.15 87.75 135.97 87.75C135.29 88.77 134.45 89.66 133.7 90.66C133.33 91.17 132.95 91.6 132.57 92.08C131.58 93.35 131.47 93.17 131.47 94.12H137.32C137.64 94.12 137.6 93.69 137.67 93.36C137.72 93.08 137.82 92.74 137.83 92.42H137.58C137.33 93.51 136.56 93.36 135.88 93.35C135 93.35 134.13 93.35 133.25 93.35C133.42 93.1 133.6 92.89 133.81 92.64L135.51 90.52C135.68 90.31 137.75 87.78 137.75 87.59C137.75 86.62 137.62 86.91 134.95 86.91L131.98 86.82C131.98 87.46 131.89 87.88 131.89 88.6H131.9ZM31.5 75.11C31.5 76.4 32.4 76.83 33.37 77.14C34.73 77.57 35.99 77.5 35.99 78.76C35.99 80.29 31.77 80.41 31.58 78.17H31.33V79.95C32.7 80.68 34.78 81.08 36.18 80.23C37.22 79.6 37.26 79.2 37.26 78.17C37.26 77.14 36.25 76.49 35.41 76.21C34.59 75.94 32.77 75.68 32.77 74.95C32.77 73.79 35.08 73.69 35.91 74.27C36.28 74.53 36.38 74.71 36.5 75.21H36.76V73.51C35.51 73.61 36.49 73.17 34.21 73.17C33.54 73.17 32.84 73.39 32.41 73.66C31.89 73.98 31.5 74.57 31.5 75.12V75.11ZM139.11 86.98C139.17 87.55 139.62 87.14 139.62 87.83V93.26C139.62 93.66 139.44 93.78 139.11 93.85V94.11H144.87C144.89 93.84 144.98 93.42 145.03 93.17C145.1 92.84 145.21 92.53 145.12 92.33C144.85 92.43 145.03 92.3 144.83 92.64C144.6 93.05 144.38 93.35 143.76 93.35H140.96V90.89H143.08C143.58 90.89 143.2 91.4 143.68 91.57C143.79 91.34 143.85 89.79 143.85 89.36H143.6C143.52 90.3 142.86 90.04 140.97 90.04V87.75H143.77C144.31 87.75 144.52 88.15 144.53 88.69H144.78C144.78 88.07 144.94 87.39 144.95 86.82C144.5 86.86 144.17 86.91 143.59 86.91C142.67 86.91 139.49 86.8 139.1 86.99L139.11 86.98ZM50.15 86.98V87.24C50.51 87.27 50.66 87.45 50.66 87.83V93.26C50.66 93.66 50.48 93.78 50.15 93.85V94.11H55.92C55.96 93.63 56.32 92.63 56.18 92.33C55.91 92.43 56.09 92.3 55.89 92.64C55.76 92.87 55.84 92.79 55.65 93C55.43 93.24 55.25 93.35 54.82 93.35H52.02V90.89C54.18 90.89 54.49 90.65 54.56 91.57H54.81L54.91 89.37H54.64C54.62 90.31 53.92 90.05 52.01 90.05V87.76H54.81C55.35 87.76 55.57 88.14 55.57 88.7H55.82C55.82 88.11 55.99 87.4 55.99 86.83C55.54 86.87 55.22 86.92 54.64 86.92C53.71 86.92 50.54 86.81 50.14 87L50.15 86.98ZM226.2 77.15C226.2 75.97 226.03 74.92 225.07 74.12C222.41 71.9 217.76 73.66 218.41 77.72C218.77 79.95 221.32 81.22 223.68 80.41C225.06 79.93 226.19 78.61 226.19 77.15H226.2ZM222.05 73.93H222.39C223.66 73.93 224.76 75.35 224.76 76.64V77.32C224.76 78.51 223.79 79.87 222.64 79.87C221.75 79.87 221.03 79.82 220.4 78.89C219.62 77.73 219.54 76.1 220.37 74.88C220.69 74.41 221.31 73.93 222.05 73.93ZM63.64 76.89C63.64 80.01 67.23 81.96 70.26 79.69C71.89 78.47 71.99 75.44 70.4 74.11C68.81 72.79 66.26 72.83 64.8 74.23C64.47 74.55 64.24 74.89 64.03 75.33C63.88 75.65 63.64 76.48 63.64 76.89ZM67.37 73.93C71.15 73.93 70.65 79.87 67.96 79.87C67.07 79.87 66.35 79.82 65.72 78.89C64.37 76.9 65.35 73.93 67.37 73.93ZM102.9 90.55C102.9 91.26 102.99 91.65 103.23 92.17C103.46 92.68 103.62 92.83 103.98 93.2C106.15 95.37 110.79 94.24 110.79 90.38C110.79 89.82 110.63 89.23 110.45 88.85C108.91 85.53 102.9 86.31 102.9 90.55ZM104.34 90.55C104.34 89.58 104.54 88.87 105.11 88.27L105.19 88.18C105.3 88.07 105.42 87.98 105.57 87.88C106.82 87.08 109.34 87.75 109.34 90.63C109.34 94.56 104.34 94.42 104.34 90.54V90.55ZM146.74 74.44V79.53C146.74 80.19 146.28 79.98 146.15 80.46C146.46 80.63 147.52 80.54 147.93 80.54C148.25 80.54 147.96 80.57 148.18 80.46C147.95 79.59 147.59 81.14 147.59 78.09V75.04C147.91 75.26 149.32 76.95 149.77 77.43L151.31 79.2C151.5 79.44 152.44 80.54 152.68 80.54C153.55 80.54 153.36 80.69 153.36 78.93V75.03C153.36 74.26 153.22 73.76 153.87 73.59V73.33H151.92V73.59C152.7 73.77 152.51 74.75 152.51 75.71V78.42C152.21 78.22 151.53 77.31 151.18 76.96L148.47 73.9C147.84 73.15 148.21 73.33 146.16 73.33C146.31 73.89 146.75 73.49 146.75 74.43L146.74 74.44ZM227.39 73.59C227.72 73.67 227.9 73.78 227.9 74.18V79.61C227.9 80.3 227.45 79.89 227.39 80.46C227.69 80.63 228.69 80.54 229.09 80.54C229.42 80.54 229.12 80.57 229.35 80.46C229.28 79.85 228.87 80.41 228.84 79.53V75.03C229.08 75.19 229.13 75.35 229.46 75.69L230.36 76.74C230.48 76.89 230.56 76.95 230.69 77.09C230.85 77.26 230.85 77.3 230.99 77.47C231.11 77.61 231.19 77.68 231.33 77.81C231.56 78.05 231.67 78.23 231.92 78.49C232.24 78.82 233.57 80.55 233.85 80.55H234.53V74.61C234.53 74 234.62 73.71 235.12 73.59V73.33H233.08C233.19 73.76 233.54 73.56 233.66 74.11L233.68 78.34C233.22 78.03 233.12 77.77 232.85 77.47C232.74 77.35 232.67 77.29 232.55 77.17L230.9 75.26C230.66 75.01 230.57 74.86 230.35 74.62C230.11 74.36 230.02 74.28 229.79 73.99C229.58 73.73 229.36 73.65 229.27 73.32H227.4V73.58L227.39 73.59ZM18.61 73.59C18.94 73.67 19.12 73.78 19.12 74.18V79.61C19.12 79.88 19.07 79.94 18.91 80.08C18.62 80.32 18.66 80.02 18.61 80.46C18.91 80.63 19.91 80.54 20.31 80.54C20.63 80.54 20.34 80.57 20.56 80.46C20.49 79.85 20.08 80.41 20.04 79.53V75.03C20.28 75.19 20.33 75.35 20.66 75.69L23.42 78.87C23.54 79.01 23.63 79.08 23.76 79.21C24.97 80.51 24.45 80.55 25.73 80.55V74.61C25.73 74 25.81 73.71 26.32 73.59V73.33H24.37V73.59C25.09 73.78 24.88 74.8 24.88 75.71V78.42L21.55 74.63C21.31 74.37 21.22 74.29 20.99 74C20.78 73.74 20.56 73.66 20.47 73.33H18.6V73.59H18.61ZM110.62 73.59C110.84 73.65 111.13 73.83 111.13 74.1V79.61C111.13 80.3 110.68 79.89 110.62 80.46C110.92 80.63 111.92 80.54 112.32 80.54C112.64 80.54 112.35 80.57 112.57 80.46V80.21C111.84 80.15 112.06 79.15 112.06 77.92V75.04L115.77 79.22C115.9 79.38 115.89 79.4 116.03 79.56C116.15 79.7 116.24 79.76 116.36 79.9C116.97 80.62 116.65 80.55 117.74 80.55V74.45C117.74 73.93 117.9 73.7 118.33 73.6V73.34H116.3C116.44 73.87 116.76 73.54 116.88 74.12L116.9 78.43C116.64 78.24 116.13 77.54 115.95 77.35L112.61 73.57C112.21 73.17 111.65 73.34 110.63 73.34V73.6L110.62 73.59ZM186.68 87.24C186.99 87.32 187.19 87.54 187.19 87.92V93.18C187.19 93.9 186.73 93.52 186.68 94.11H188.63V93.85C188.37 93.79 188.3 93.72 188.12 93.6V88.68L192.34 93.45C192.96 94.18 192.61 94.1 193.8 94.1V87.99C193.8 87.51 193.91 87.32 194.31 87.23V86.89H192.61C192.29 86.89 192.58 86.86 192.36 86.97C192.58 87.8 192.95 86.4 192.95 89.18V92.06L191.23 90.13C190.97 89.87 190.89 89.7 190.64 89.45L189.49 88.14C189.38 88.02 189.31 87.97 189.2 87.84C189.05 87.67 189.05 87.63 188.9 87.46C188.23 86.7 188.37 86.89 186.67 86.89V87.23L186.68 87.24ZM45.49 73.59C45.8 73.67 46 73.88 46 74.27C46 75.08 46.15 79.58 45.87 79.99C45.74 80.18 45.75 80.15 45.5 80.21V80.55H47.53C47.86 80.55 47.56 80.58 47.79 80.47C47.73 79.9 47.28 80.31 47.28 79.62V74.36C47.28 73.94 48 74.11 49.15 74.11C49.91 74.11 50.44 74.72 50.3 75.5C50.05 76.8 48.93 76.57 47.46 76.57C47.46 77.01 47.5 76.9 47.73 77.15C47.91 77.34 47.96 77.45 48.16 77.65L50.25 80.14C50.7 80.71 50.76 80.55 52.13 80.55C52.45 80.55 52.16 80.58 52.39 80.47C52.28 80.08 52.01 80.24 51.3 79.36L50.28 78.17C50.04 77.87 49.81 77.67 49.59 77.33C50.26 77.18 51.1 77.11 51.54 76.23C51.92 75.5 51.76 74.42 51.21 73.92C50.55 73.33 49.87 73.34 48.65 73.34H45.51V73.6L45.49 73.59ZM176.42 74.44V79.36C176.42 80.26 175.95 79.98 175.83 80.46C176.16 80.64 178.36 80.54 178.88 80.54C180.18 80.54 181.1 80.37 181.88 79.8C183.93 78.3 183.66 74.41 180.97 73.53C179.7 73.11 177.42 73.33 175.83 73.33C175.98 73.89 176.42 73.49 176.42 74.43V74.44ZM179.39 79.69H177.69V74.09H179.22C182.74 74.09 182.58 79.69 179.39 79.69ZM155.9 74.44V79.36C155.9 79.64 155.85 79.85 155.71 80.02C155.42 80.35 155.42 80.05 155.31 80.47C155.64 80.65 157.84 80.55 158.36 80.55C160.16 80.55 161.39 80.21 162.23 78.82C163.2 77.21 162.73 74.3 160.45 73.54C159.18 73.12 156.9 73.34 155.31 73.34C155.46 73.9 155.9 73.5 155.9 74.44ZM158.87 79.69H157.17V74.09H158.7C160.3 74.09 161.23 75.32 161.3 76.82C161.37 78.33 160.35 79.69 158.87 79.69ZM146.49 86.98C146.55 87.55 147 87.14 147 87.83V93.26C147 93.66 146.82 93.78 146.49 93.85V94.11H148.78V93.85C148.4 93.75 148.27 93.47 148.27 93V88C148.27 87.57 149.05 87.74 150.22 87.74C151.51 87.74 151.53 89.3 150.97 89.85C150.66 90.15 150.37 90.13 149.8 90.12C148.01 90.11 147.95 89.9 149.9 92.13C150.15 92.42 151.42 93.83 151.49 94.1H153.35V93.84C152.66 93.68 151.49 91.97 150.87 91.32C150.67 91.1 150.63 91.17 150.55 90.87C153.07 90.87 153.32 88.13 151.85 87.28C150.83 86.69 146.58 86.85 146.48 86.97L146.49 86.98ZM124.35 85.8C125.54 85.9 124.89 86.54 124.12 88.2C123.95 88.57 123.84 88.85 123.67 89.19L122.74 91.23C122.25 92.34 121.78 93.65 120.88 93.86V94.12H123.51V93.86C122.02 93.51 123.39 92.37 123.68 91.15H127.5C127.72 92.11 129.15 93.52 127.67 93.86V94.12H130.89V93.86C129.9 93.63 129.46 92.24 128.94 91.06L127.4 87.76C127.24 87.38 127.06 87.07 126.89 86.66C126.75 86.32 126.48 85.91 126.39 85.55H124.35V85.8ZM125.54 87.07H125.71C125.75 87.51 126.96 89.84 127.07 90.29H124.1C124.37 89.78 124.57 89.27 124.84 88.74L125.54 87.07ZM167.35 71.89C167.41 72.57 168.03 71.98 168.03 73.08V79.44C168.03 80.2 167.48 79.99 167.35 80.46C167.7 80.66 173.03 80.54 173.88 80.54C174.21 80.54 174.18 80 174.26 79.64C174.33 79.26 174.45 78.85 174.48 78.5H174.22C174.11 78.99 173.7 79.69 173.12 79.69H169.39V76.47C171.93 76.47 172.5 76.16 172.53 77.32H172.78C172.78 76.76 172.85 76.51 172.87 76.05C172.88 75.51 172.95 75.24 172.95 74.78H172.69C172.66 75.14 172.46 75.71 172.1 75.71H169.39V72.74H173.29C173.67 72.74 173.8 73.34 173.8 73.76H174.06C174.06 73.11 174.23 72.41 174.23 71.81C172.41 71.96 169.24 71.89 167.36 71.89H167.35ZM88.82 78.25C88.82 79.61 87.15 80.02 85.84 79.87C84.41 79.7 83.83 79.25 83.35 78.21C83.22 77.93 83.43 78.01 83.05 77.91V79.78C84.47 80.53 84.89 80.71 86.61 80.71C87.57 80.71 88.32 80.46 88.95 80.08C89.52 79.74 90.09 79.02 90.09 78.16C90.09 74.37 84.58 75.66 84.58 73.67C84.58 72.29 88.23 71.99 89.08 73.41C89.32 73.81 89.11 73.98 89.5 74.09V72.14C88.94 72.27 89.35 72.35 88.79 72.09C86.67 71.13 82.94 71.91 83.25 74.31C83.55 76.54 86.43 76.42 87.95 77.17C88.36 77.37 88.82 77.71 88.82 78.25ZM154.55 86.98C154.66 87.41 154.6 87.08 154.86 87.35C155 87.49 155.06 87.58 155.06 87.83V93.26C155.06 93.66 154.88 93.78 154.55 93.85V94.11C156.05 94.11 157.55 94.11 159.05 94.11C162.18 94.11 161.92 90.56 160.4 90.21C160.56 89.97 160.65 89.92 160.8 89.59C161.23 88.64 160.9 87.61 160.09 87.21C159.2 86.77 154.68 86.83 154.55 86.98ZM158.78 89.87H156.32V87.75H158.78C159.94 87.75 159.94 89.87 158.78 89.87ZM158.78 93.35H156.58C156.39 93.35 156.32 93.29 156.32 93.1V90.73H159.12C160.27 90.73 160.53 93.36 158.78 93.36V93.35ZM73.05 86.98C73.11 87.55 73.56 87.14 73.56 87.83V93.26C73.56 93.66 73.38 93.78 73.05 93.85V94.11C74.66 94.11 77.61 94.35 78.73 93.86C79.4 93.56 79.91 92.99 79.98 92.14C80.03 91.52 79.69 90.39 78.9 90.21C79.34 89.55 79.8 88.75 79.24 87.83C79.09 87.59 78.89 87.41 78.62 87.26C77.6 86.71 73.15 86.85 73.05 86.98ZM77.29 89.87H74.83V87.75C76.96 87.75 78.14 87.42 78.14 88.85C78.14 89.4 77.82 89.87 77.29 89.87ZM77.29 93.35H75.08C74.89 93.35 74.83 93.29 74.83 93.1V90.73H77.63C78.76 90.73 79.02 93.36 77.29 93.36V93.35ZM40.74 85.63C40.96 85.96 40.91 85.78 41.16 85.98C41.32 86.12 41.42 86.32 41.42 86.56V93C41.42 93.98 40.89 93.55 40.74 94.1H43.37V93.84C42.77 93.7 42.69 93.29 42.69 92.57C42.69 91.38 42.58 87.23 42.77 86.38C43.42 86.23 45.56 86.12 46.19 86.69C47.01 87.44 46.87 89.43 45.06 89.43H43.2C43.21 89.96 43.56 90.07 44.01 90.65C44.36 91.1 46.75 93.75 46.85 94.09H48.88V93.83C48.15 93.64 47.51 92.65 47.03 92.11L45.4 90.18C49.16 90.18 49.02 85.52 45.57 85.52C45.04 85.52 40.88 85.43 40.74 85.6V85.63ZM2.49003 72.82C2.49003 73.28 1.69003 76.09 1.52003 76.77C1.35003 77.47 1.20003 78.05 1.03003 78.74C0.890029 79.31 0.690029 80.15 0.0300293 80.2V80.45C0.350029 80.63 1.71003 80.53 2.15003 80.53V80.19C1.39003 80.01 1.80003 79.22 2.11003 78.12L3.42003 73.32L6.07003 80.17C6.24003 80.59 6.04003 80.53 7.07003 80.53C7.36003 80.53 7.67003 79.38 7.87003 78.87C8.11003 78.24 8.37003 77.63 8.58003 77.04L9.95003 73.41C10.24 73.62 10 73.3 10.26 74.2L11.48 78.66C11.62 79.18 12.03 80.12 11.22 80.19V80.44C11.55 80.63 13.28 80.52 13.77 80.52V80.18C13.07 80.02 12.9 79.06 12.73 78.42C12.56 77.76 11.23 73.04 11.36 72.69C11.42 72.53 11.55 72.42 11.67 72.32C11.88 72.16 11.96 72.2 11.98 71.87H9.61003C9.37003 72.33 9.12003 73.07 8.94003 73.58L7.63003 77.02C7.50003 77.35 7.16003 78.55 6.89003 78.74C6.86003 78.42 5.74003 75.64 5.59003 75.29C5.35003 74.69 5.14003 74.19 4.91003 73.59L4.26003 71.87H1.80003C1.84003 72.28 1.87003 72.14 2.14003 72.3C2.30003 72.4 2.48003 72.53 2.48003 72.8L2.49003 72.82Z" fill="#937A2D"/>
<path fill-rule="evenodd" clip-rule="evenodd" d="M144.67 42.13C145.39 42.09 146.1 42.02 146.82 41.9V41.5C146.82 41.5 145.75 41.5 144.28 41.64L144.7 42.13H144.67ZM145.04 43.22C142.3 40.02 139.55 36.76 136.81 33.61C136.89 34 136.93 34.58 137.03 35.06L137.21 36.05C137.47 36.38 143.23 42.75 145.3 45.35C145.3 45.25 144.83 43.43 144.83 43.43L145.02 43.22H145.04ZM144.92 45.96L145.22 45.7C145.22 45.54 139.22 38.64 137.16 36.29C135.52 37.72 133.73 38.94 131.8 39.95C133.71 39.34 135.5 38.41 137.11 37.21C139.65 39.82 144.76 45.95 144.92 45.97V45.96ZM131.21 59.68C130.65 59.27 130.12 58.84 129.61 58.37L129.66 57.72C130.78 58.69 131.54 59.37 131.55 59.43L131.29 59.73L131.21 59.68ZM129.44 59.43L129.61 58.74C130.1 59.16 130.52 59.54 130.94 59.84C130.88 59.84 130.1 59.65 129.55 59.51L129.44 59.43ZM129.03 59.35H128.75C128.75 59.35 127.83 60.96 127.72 61.03C128.1 57.74 128.52 49.15 128.58 48.74L129.15 47.92C129.42 47.51 129.81 47.07 130.06 46.73C129.8 50.93 129.41 55.14 129.08 59.34L129.03 59.36V59.35ZM127.38 61.26C127.51 61.18 128.13 52.04 128.29 48.9C126.11 48.76 123.97 48.36 121.89 47.7C123.67 48.62 125.6 49.24 127.59 49.53C127.54 53.19 126.82 61.12 126.92 61.24H127.32L127.37 61.26H127.38ZM108 61.26H107.6C107.47 61.18 106.85 52.04 106.69 48.9C108.88 48.8 111.06 48.42 113.16 47.78C111.38 48.7 109.45 49.32 107.47 49.61C107.53 53.27 108.24 61.2 108.14 61.32L108.01 61.27L108 61.26ZM106.24 59.43C106.24 59.43 107.15 61.04 107.26 61.11C106.89 57.82 106.46 49.23 106.41 48.82L105.84 48C105.57 47.59 105.18 47.15 104.93 46.81C105.19 51.01 105.58 55.22 105.91 59.41H106.19L106.24 59.43ZM105.4 57.73C104.74 58.27 104.11 58.84 103.51 59.44L103.77 59.73C104.36 59.32 104.93 58.86 105.46 58.37L105.41 57.73H105.4ZM105.4 57.38L105.29 56.14C103.26 57.97 101.5 59.49 101.44 59.62L101.62 59.92L102.21 59.43L102.64 59.83L105.38 57.38H105.4ZM89.86 45.75L90.16 46.01C90.32 46.01 95.43 39.88 97.97 37.26C99.58 38.46 101.37 39.39 103.28 40C101.35 39 99.56 37.77 97.92 36.34C95.86 38.7 89.82 45.6 89.86 45.74V45.75ZM90.23 43.44C90.23 43.44 89.77 45.27 89.76 45.36C91.83 42.76 97.5901 36.4 97.8501 36.06L98.03 35.07C98.13 34.59 98.17 34.01 98.25 33.62C97.56 34.41 96.8901 35.21 96.2101 36.01L90.04 43.2L90.23 43.41V43.44ZM89.7 43L88.48 42.29L90.19 42.46L89.7 43.04V43ZM88.3 41.51C88.3 41.51 89.37 41.51 90.84 41.65L90.43 42.14C89.16 42.03 88.3001 41.95 88.2701 41.91V41.51H88.3ZM87.3801 23.46C87.3801 23.46 86.64 23.52 86.61 23.54L86.69 23.88C86.82 23.94 89.18 23.8 91.87 23.62L91.0701 22.66L87.41 22.87V23.46H87.37H87.3801ZM90.2 21.63L89.7101 21.05C89.2301 21.33 88.5401 21.75 88.4901 21.8L90.2 21.63ZM90.44 21.9C89.17 22.01 88.31 22.09 88.28 22.13V22.53C88.28 22.53 89.3501 22.53 90.8201 22.39L90.41 21.9H90.44ZM89.78 18.68C89.78 18.78 90.25 20.6 90.25 20.6L90.06 20.81L96.2401 28.04C96.9201 28.83 97.58 29.64 98.28 30.43C98.2 30.04 98.16 29.46 98.06 28.98L97.8801 27.99C97.6301 27.67 91.86 21.27 89.79 18.68H89.78ZM90.17 18.03L89.87 18.29C89.87 18.45 95.87 25.34 97.93 27.7C99.57 26.27 101.36 25.05 103.29 24.04C101.38 24.65 99.59 25.58 97.98 26.78C95.44 24.16 90.33 18.03 90.17 18.02V18.03ZM105.48 6.65998L105.37 7.89998C103.34 6.06998 101.58 4.54998 101.52 4.41998L101.71 4.12997L102.29 4.60998L102.72 4.20998L105.46 6.65998H105.48ZM105.48 6.30997C104.36 5.33997 103.59 4.65998 103.59 4.60998L103.85 4.30997C104.44 4.72997 105.01 5.18998 105.54 5.66998L105.49 6.30997H105.48ZM105.63 4.54998L105.57 5.31998C105.08 4.89998 104.66 4.51998 104.25 4.21998L105.64 4.54998H105.63ZM106.04 4.62997H106.32C106.32 4.62997 107.28 2.98997 107.35 2.98997C106.97 6.27997 106.55 14.87 106.49 15.27L105.92 16.1C105.65 16.51 105.26 16.94 105.01 17.28C105.27 13.09 105.66 8.87998 105.99 4.66998L106.04 4.61998V4.62997ZM107.68 2.71998C107.55 2.79998 106.93 11.94 106.77 15.08C108.95 15.22 111.09 15.62 113.17 16.28C111.39 15.36 109.46 14.74 107.48 14.45C107.54 10.79 108.25 2.85997 108.15 2.73997H107.75L107.7 2.71998H107.68ZM127.09 2.76997H127.49C127.62 2.84997 128.24 11.99 128.4 15.13C126.22 15.27 124.08 15.67 122 16.33C123.78 15.41 125.71 14.79 127.7 14.5C127.64 10.84 126.93 2.90998 127.03 2.78998L127.08 2.76997H127.09ZM128.85 4.59998H129.13C129.46 8.79998 129.85 13.02 130.11 17.21C129.9 16.87 129.52 16.44 129.2 16.03L128.7 15.22C128.6 14.8 128.18 6.22998 127.79 2.97998C127.85 3.03998 128.81 4.65998 128.81 4.65998L128.86 4.59998H128.85ZM130.94 4.20998C130.88 4.20998 130.1 4.39998 129.55 4.53998L129.61 5.29998C130.1 4.87998 130.52 4.50998 130.94 4.20998ZM129.7 6.28998C130.81 5.31998 131.59 4.63997 131.59 4.58997L131.33 4.28998C130.73 4.70998 130.15 5.17998 129.61 5.66998L129.66 6.30997L129.69 6.28998H129.7ZM129.7 6.63998L129.81 7.87997C131.84 6.04997 133.6 4.52998 133.66 4.39998L133.47 4.10998L132.89 4.58997L132.46 4.18998L129.71 6.63998H129.7ZM145.29 18.29C145.29 18.45 139.29 25.34 137.23 27.7C135.59 26.27 133.8 25.05 131.87 24.04C133.78 24.65 135.57 25.58 137.18 26.78C139.72 24.16 144.83 18.03 144.98 18.02L145.28 18.28L145.29 18.29ZM144.92 20.6L145.11 20.81L138.93 28.04C138.25 28.83 137.59 29.64 136.89 30.43C136.97 30.04 137.01 29.46 137.11 28.98L137.29 27.99C137.55 27.66 143.31 21.29 145.38 18.69C145.38 18.79 144.91 20.61 144.91 20.6H144.92ZM144.92 21.63L145.41 21.05C145.88 21.33 146.58 21.75 146.63 21.8L144.92 21.63ZM144.68 21.9C145.95 22.01 146.81 22.09 146.84 22.13V22.53C146.84 22.53 145.77 22.53 144.3 22.39L144.71 21.9H144.68ZM144.04 22.66L147.7 22.87V23.45C147.7 23.45 148.44 23.51 148.47 23.53L148.4 23.87C148.26 23.93 145.91 23.79 143.21 23.61L144.01 22.7L144.05 22.66H144.04ZM105.65 59.72V59.82C105.86 59.84 106.07 59.84 106.28 59.82C106.67 60.38 107.03 60.96 107.34 61.58H108.1C108.1 61.87 108.16 62.49 108.16 62.49H108.78C108.78 62.76 108.83 63.04 108.86 63.3L109.5 63.21C109.52 63.41 109.55 63.61 109.59 63.8C111.27 63.35 112.83 62.54 114.16 61.42C115.38 60.44 116.47 59.3 117.4 58.03C117.45 57.97 117.51 57.92 117.56 57.86C117.61 57.92 117.66 57.97 117.72 58.03C118.64 59.3 119.73 60.44 120.96 61.42C122.29 62.54 123.85 63.35 125.53 63.8C125.58 63.61 125.6 63.42 125.62 63.22L126.26 63.3C126.3 63.03 126.33 62.76 126.34 62.49H126.96C126.96 62.49 127.02 61.91 127.02 61.58H127.79C128.11 60.98 128.47 60.38 128.86 59.82C129.07 59.84 129.28 59.84 129.49 59.82V59.72C130.08 59.83 130.68 59.98 131.26 60.17L131.79 59.63C132 59.83 132.23 60.02 132.46 60.21L132.9 59.77C133.1 59.95 133.31 60.13 133.53 60.28L133.92 59.77C134.08 59.9 134.23 60.02 134.39 60.13C135.27 58.62 135.8 56.95 135.94 55.21C136.12 53.65 136.09 52.07 135.84 50.52V50.29H136.07C137.62 50.54 139.2 50.57 140.76 50.39C142.5 50.24 144.18 49.71 145.68 48.84C145.57 48.67 145.45 48.52 145.32 48.36L145.83 47.97C145.67 47.75 145.5 47.54 145.32 47.34L145.76 46.9C145.76 46.9 145.39 46.44 145.18 46.23L145.71 45.7C145.51 45.05 145.34 44.38 145.23 43.71C145.38 43.56 145.53 43.41 145.66 43.24L144.95 42.4L146.66 42.24L145.44 42.99L145.59 43.16C146.09 42.82 146.61 42.52 147.15 42.25V41.49C147.45 41.49 147.76 41.46 148.06 41.42V40.8C148.33 40.8 148.61 40.75 148.87 40.72L148.78 40.08C148.98 40.06 149.18 40.03 149.37 39.99C148.92 38.31 148.11 36.75 146.99 35.42C146.01 34.19 144.87 33.1 143.6 32.17L143.44 32.01C143.49 31.96 143.55 31.91 143.6 31.86C144.87 30.95 146.01 29.85 146.97 28.62C148.09 27.29 148.9 25.73 149.35 24.05C149.16 24.01 148.96 23.98 148.76 23.96L148.85 23.32C148.58 23.28 148.31 23.25 148.04 23.24V22.62C148.04 22.62 147.46 22.56 147.13 22.56V21.81C146.59 21.54 146.06 21.23 145.56 20.9L145.63 20.82C145.49 20.66 145.36 20.5 145.2 20.35C145.32 19.68 145.48 19.01 145.69 18.37L145.16 17.8C145.36 17.59 145.55 17.36 145.74 17.13L145.3 16.69C145.48 16.49 145.66 16.28 145.81 16.06L145.3 15.67C145.4 15.51 145.58 15.34 145.66 15.19C144.15 14.32 142.48 13.79 140.74 13.64C139.18 13.46 137.6 13.49 136.05 13.74H135.82V13.51C136.07 11.97 136.1 10.39 135.92 8.82998C135.79 7.08998 135.28 5.40998 134.41 3.89998C134.24 4.00998 134.09 4.12998 133.93 4.25998L133.54 3.74998C133.32 3.90998 133.11 4.07998 132.91 4.25998L132.47 3.81998C132.47 3.81998 132.01 4.18998 131.8 4.39998L131.27 3.90998C130.69 4.08998 130.1 4.23998 129.51 4.35998V4.21998C129.3 4.19998 129.09 4.19998 128.88 4.21998C128.48 3.64998 128.11 3.05997 127.79 2.44997H127.03C127.03 2.14997 126.97 1.53998 126.97 1.53998H126.35C126.35 1.18998 126.35 0.98998 126.27 0.72998L125.63 0.819977C125.61 0.619977 125.58 0.41998 125.54 0.22998C123.86 0.67998 122.3 1.48998 120.97 2.60998C119.74 3.59998 118.66 4.74998 117.74 6.03998L117.58 6.20998C117.54 6.14998 117.48 6.09998 117.43 6.03998C116.51 4.76998 115.42 3.62998 114.19 2.64998C112.86 1.52998 111.3 0.719974 109.62 0.269974C109.57 0.459974 109.55 0.659978 109.53 0.859978L108.89 0.769974C108.89 1.02997 108.83 1.23998 108.81 1.57998H108.19C108.19 1.57998 108.13 2.15997 108.13 2.48997H107.38C107.06 3.08997 106.7 3.67997 106.31 4.23997C106.1 4.21997 105.89 4.21997 105.68 4.23997V4.34998C105.08 4.22998 104.48 4.07998 103.9 3.90998L103.37 4.43998C103.16 4.23998 102.93 4.04998 102.7 3.85998L102.26 4.29998C102.06 4.11998 101.85 3.93998 101.63 3.78998L101.24 4.29998C101.09 4.14998 100.93 4.02998 100.77 3.90998C99.8901 5.40998 99.36 7.08998 99.22 8.82998C99.04 10.38 99.0701 11.97 99.3201 13.51V13.74H99.09C97.54 13.49 95.96 13.46 94.4 13.64C92.66 13.8 90.99 14.33 89.48 15.19C89.59 15.35 89.71 15.51 89.84 15.66L89.33 16.05C89.49 16.27 89.66 16.48 89.84 16.68L89.4 17.12C89.58 17.35 89.77 17.58 89.98 17.79L89.45 18.32C89.66 18.99 89.83 19.67 89.94 20.36C89.78 20.51 89.65 20.66 89.51 20.83L89.58 20.91C89.08 21.24 88.5601 21.55 88.0201 21.82V22.57C87.7201 22.57 87.11 22.63 87.11 22.63V23.25C86.84 23.25 86.56 23.3 86.3 23.33L86.39 23.97C86.19 23.99 85.99 24.02 85.8 24.06C86.25 25.74 87.06 27.3 88.18 28.63C89.16 29.86 90.3001 30.95 91.5701 31.87C91.6201 31.93 91.68 31.98 91.73 32.03L91.5701 32.18C90.3001 33.1 89.16 34.19 88.18 35.42C87.07 36.75 86.25 38.31 85.8 39.99C85.99 40.04 86.19 40.06 86.39 40.08L86.3 40.72C86.56 40.76 86.84 40.79 87.11 40.8V41.42C87.11 41.42 87.6901 41.49 88.0201 41.49V42.29C88.5601 42.57 89.08 42.87 89.58 43.21L89.51 43.29C89.65 43.45 89.78 43.61 89.94 43.76C89.8 44.42 89.63 45.08 89.42 45.72L89.95 46.25C89.74 46.46 89.37 46.92 89.37 46.92L89.81 47.36C89.63 47.56 89.45 47.77 89.3 47.99L89.81 48.38C89.68 48.54 89.56 48.69 89.45 48.85C90.96 49.73 92.63 50.26 94.37 50.4C95.93 50.58 97.51 50.55 99.06 50.3H99.29V50.53C99.04 52.08 99.01 53.66 99.19 55.22C99.34 56.96 99.8701 58.63 100.74 60.14C100.91 60.03 101.06 59.91 101.22 59.78L101.61 60.29C101.83 60.14 102.04 59.96 102.24 59.78L102.68 60.22C102.91 60.04 103.14 59.84 103.35 59.64L103.88 60.18C104.46 59.99 105.05 59.84 105.64 59.73H105.67L105.65 59.72ZM126.06 35.62L129.62 32.02L126.09 28.49V23.51H121.11L117.58 19.98L114.08 23.51H109.07V28.49L105.54 32.02L109.07 35.55V40.54H114.08L117.61 44.06L121.14 40.54H126.12V35.55L126.07 35.62H126.06ZM130.31 31.69C131.23 31.03 132.09 30.3 132.88 29.5L129.22 27.53L129.08 28.01C128.85 28.64 128.7 29.3 128.63 29.97L130.32 31.66L130.3 31.7L130.31 31.69ZM130.56 31.94L130.46 31.84C131.46 31.26 132.38 30.54 133.2 29.73L136.57 31.56L142.97 23.95C144.91 24.06 146.79 24.19 148.91 24.32C148.41 25.93 147.59 27.42 146.52 28.71C146.04 29.31 145.51 29.88 144.96 30.42C144.46 31 143.83 31.45 143.13 31.74C142.61 31.82 142.08 31.86 141.55 31.84C139.91 31.84 138.26 31.84 136.63 31.9L130.56 31.95V31.94ZM130.46 32.34C131.46 32.93 132.38 33.64 133.2 34.45L136.57 32.62L144.07 41.38L147.73 41.17V40.58L148.5 40.51L148.42 40.17C148.29 40.11 145.93 40.24 143.24 40.43L143.02 40.16C144.96 40.05 146.84 39.92 148.96 39.79C148.46 38.18 147.64 36.69 146.57 35.4C146.06 34.79 145.52 34.2 144.93 33.65C144.44 33.07 143.81 32.63 143.1 32.33C142.58 32.24 142.05 32.2 141.52 32.22C139.86 32.22 138.22 32.22 136.59 32.16H130.55L130.53 32.22L130.47 32.32L130.46 32.34ZM128.64 34.16C128.71 34.83 128.86 35.49 129.09 36.12L129.23 36.6L132.89 34.63C132.1 33.84 131.25 33.11 130.35 32.46L128.66 34.16H128.64ZM126.87 37.82L128.91 36.71L128.25 34.49L126.87 35.89V37.84V37.82ZM126.87 40.75V38.36C127.4 37.95 127.97 37.58 128.57 37.29C131.06 35.97 134.06 34.26 136.49 33.09C136.59 33.51 136.43 33.95 136.1 34.21C134.45 35.12 132.77 35.95 131.16 36.83C130.52 37.18 127.96 38.54 127.21 39.1C129.76 37.81 134.27 35.8 136.74 34.2C136.87 34.51 136.74 34.87 136.43 35.01C134.57 36.32 132.59 37.45 130.52 38.38C129.43 38.84 128.36 39.34 127.33 39.91H127.39C130.35 39.01 133.18 37.72 135.78 36.04L136.87 35.27L137.02 36.18L136.41 36.72C133.58 39.18 130.41 40.68 127.63 40.75H127.51C127.35 40.75 127.39 40.75 127.58 40.8C128.91 40.88 130.26 40.75 131.55 40.42L132.16 40.25C133.76 39.77 135.28 39.06 136.68 38.16C136.88 38.02 137.07 37.91 137.26 37.76L145.41 46.9L145.01 47.33C145.01 47.33 145.48 47.89 145.5 47.92L145.2 48.1C144.94 48.01 139.64 41.85 137.34 39.24C136.97 39.42 136.6 39.53 136.23 39.68C132.51 41.68 127.68 40.9 126.92 40.76H126.88L126.87 40.75ZM126.87 41.11V40.97C130.35 41.87 134.06 41.44 137.24 39.75C140.35 43.1 142.51 45.57 145.28 48.73C143.79 49.52 142.15 49.99 140.48 50.13C139.68 50.21 138.89 50.24 138.09 50.22C137.33 50.27 136.57 50.16 135.87 49.86C135.44 49.55 135.04 49.19 134.67 48.81C133.51 47.65 132.32 46.52 131.15 45.38L126.86 41.1L126.87 41.11ZM129.8 55.84L130.63 45.91L126.97 44.81C126.97 43.65 126.81 42.5 126.51 41.37H126.65L130.93 45.64C132.05 46.82 133.2 48.01 134.36 49.17C134.74 49.54 135.1 49.94 135.4 50.37C135.69 51.07 135.82 51.83 135.77 52.59C135.79 53.39 135.77 54.18 135.68 54.98C135.53 56.65 135.06 58.29 134.28 59.78C132.69 58.37 131.26 57.13 129.82 55.84H129.8ZM129.8 56.18C131.83 58.01 133.59 59.52 133.65 59.67L133.46 59.96L132.88 59.47L132.45 59.87L129.71 57.42L129.82 56.18H129.8ZM123.92 41.38H126.31C126.5 42.48 126.58 43.58 126.57 44.7L122.6 43.51C122.68 43.36 122.76 43.22 122.84 43.07C123.13 42.47 123.49 41.9 123.91 41.38H123.92ZM120.05 42.7L121.43 41.38H123.38L122.3 43.36L120.08 42.7H120.05ZM117.98 44.78C118.43 45.42 121.28 49.35 125.29 50.6C125.66 50.75 125.99 50.94 126.39 51.07C126.17 54.54 125.58 62.64 125.7 62.9L126.03 62.97L126.11 62.2H126.7L127.43 49.96C127.18 49.96 126.97 49.87 126.74 49.83C125.1 49.48 123.53 48.91 122.06 48.11C121.88 48.01 121.68 47.91 121.51 47.8C120.36 47.12 119.32 46.27 118.43 45.27C118.3 45.12 118.3 45.07 118.43 45.18L118.52 45.27C120.54 47.18 123.84 48.36 127.58 48.62L128.39 48.67L128.93 47.93C128.02 47.77 127.88 47.74 127.61 47.7C124.58 47.04 121.66 45.97 118.94 44.5C118.88 44.5 118.86 44.44 118.94 44.5C119.74 44.69 121.57 45.41 122.28 45.67C124.4 46.5 126.6 47.11 128.85 47.5C129.22 47.56 129.36 47.56 129.64 47.15C126.76 46.52 122.15 44.76 119.44 43.87C120.35 44.01 123.1 44.86 123.84 45.06C125.6 45.57 127.34 46.19 129.18 46.7C129.61 46.75 130.03 46.55 130.25 46.19C127.68 45.28 124.36 44.36 121.67 43.57C121.04 43.34 120.39 43.19 119.72 43.12L118.02 44.81L118 44.76L117.98 44.78ZM117.73 45.03L117.82 44.93C119.66 48.04 122.59 50.34 126.05 51.4C125.88 55.97 125.65 59.24 125.39 63.43C123.78 62.93 122.29 62.11 121 61.04C120.39 60.53 119.8 59.99 119.25 59.41C118.67 58.91 118.23 58.29 117.93 57.58C117.83 57.06 117.77 56.53 117.78 56C117.78 54.35 117.78 52.71 117.72 51.08V45.03H117.73ZM117.29 44.95L117.38 45.05V51.09C117.38 52.72 117.32 54.36 117.32 56.02C117.34 56.55 117.3 57.08 117.21 57.6C116.92 58.3 116.47 58.93 115.89 59.43C115.34 60.01 114.76 60.55 114.14 61.06C112.85 62.14 111.36 62.95 109.75 63.45C109.49 59.25 109.3 56 109.13 51.43C112.58 50.37 115.52 48.06 117.36 44.96H117.29V44.95ZM115.46 43.12C114.79 43.19 114.14 43.34 113.5 43.57C110.81 44.39 107.49 45.29 104.93 46.19C105.15 46.56 105.57 46.76 106 46.7C107.83 46.2 109.57 45.58 111.34 45.06C112.03 44.85 114.81 44.01 115.74 43.87C115.81 43.87 115.8 43.87 115.74 43.87C113 44.78 108.43 46.52 105.54 47.15C105.81 47.55 105.96 47.55 106.33 47.5C108.58 47.12 110.78 46.5 112.9 45.67C113.6 45.4 115.43 44.69 116.24 44.5C113.52 45.97 110.59 47.04 107.57 47.69L106.25 47.93L106.77 48.68L107.58 48.63C111.32 48.37 114.62 47.19 116.64 45.28L116.73 45.19C116.84 45.08 116.84 45.13 116.73 45.28C115.84 46.27 114.81 47.11 113.66 47.78L113.11 48.09C111.64 48.88 110.07 49.46 108.43 49.81C108.19 49.81 107.98 49.91 107.73 49.94L108.43 62.17H109.01C109.01 62.17 109.07 62.91 109.08 62.94L109.42 62.87C109.54 62.61 108.94 54.52 108.73 51.04C109.12 50.9 109.46 50.72 109.83 50.57C113.88 49.35 116.74 45.39 117.14 44.75L115.44 43.06L115.47 43.14L115.46 43.12ZM111.81 41.37L112.92 43.4L115.14 42.74L113.72 41.38H111.81V41.37ZM108.87 41.37H111.26C111.68 41.89 112.04 42.46 112.33 43.06C112.4 43.21 112.48 43.35 112.57 43.5L108.58 44.65C108.56 43.55 108.64 42.46 108.83 41.38H108.87V41.37ZM108.52 41.37L104.21 45.61C103.08 46.78 101.94 47.97 100.78 49.13C100.4 49.49 100.04 49.9 99.7401 50.33C99.4501 51.03 99.32 51.79 99.37 52.55C99.35 53.34 99.3701 54.14 99.4601 54.94C99.6101 56.61 100.08 58.25 100.86 59.74C102.45 58.33 103.88 57.09 105.32 55.8L104.49 45.87L108.15 44.77C108.15 43.63 108.3 42.48 108.6 41.38H108.53L108.52 41.37ZM108.31 41.01C104.83 41.91 101.12 41.48 97.94 39.79C94.82 43.14 92.67 45.62 89.9 48.77C91.39 49.55 93.03 50.02 94.7 50.17C95.5 50.25 96.29 50.28 97.09 50.26C97.85 50.32 98.61 50.19 99.31 49.89C99.74 49.59 100.14 49.23 100.51 48.85C101.67 47.69 102.86 46.55 104.04 45.42L108.32 41.14V41L108.31 41.01ZM108.31 38.4C107.78 37.99 107.21 37.62 106.61 37.33C104.12 36.01 101.13 34.3 98.69 33.13C98.59 33.55 98.75 33.99 99.08 34.25C100.73 35.16 102.41 35.99 104.02 36.86C104.66 37.22 107.22 38.58 107.97 39.14C105.42 37.85 100.91 35.84 98.44 34.24C98.34 34.72 98.44 34.82 98.75 35.04C100.61 36.35 102.61 37.46 104.7 38.38C105.39 38.69 107.19 39.48 107.89 39.92H107.84C104.88 39.02 102.05 37.71 99.45 36.04L98.3501 35.27L98.2101 36.18L98.8201 36.72C101.65 39.18 104.82 40.68 107.6 40.75H107.68C107.84 40.75 107.8 40.75 107.61 40.81C106.28 40.91 104.94 40.8 103.64 40.48L103.03 40.31C101.44 39.82 99.93 39.09 98.54 38.17C98.34 38.03 98.1501 37.92 97.9601 37.77L89.78 46.88L90.18 47.31C90.18 47.31 89.7 47.87 89.69 47.9L89.9901 48.08C90.2501 47.99 95.5501 41.83 97.8501 39.22C98.2201 39.4 98.5901 39.51 98.9601 39.66C102.68 41.66 107.51 40.88 108.27 40.74V38.37L108.31 38.41V38.4ZM106.93 34.53L108.27 35.89V37.84L106.23 36.72L106.89 34.5L106.93 34.54V34.53ZM104.85 32.46C103.94 33.1 103.09 33.83 102.31 34.63L105.97 36.6L106.11 36.12C106.34 35.49 106.49 34.83 106.56 34.16L104.82 32.42L104.86 32.46H104.85ZM104.59 32.21L104.69 32.3C103.69 32.89 102.77 33.6 101.95 34.41L98.58 32.58L91.08 41.37L87.42 41.16V40.57L86.65 40.5L86.73 40.16C86.86 40.1 89.22 40.23 91.91 40.42L92.1301 40.15C90.1901 40.04 88.31 39.91 86.19 39.78C86.69 38.17 87.51 36.68 88.59 35.39C89.1 34.78 89.65 34.19 90.23 33.64C90.72 33.06 91.35 32.62 92.06 32.32C92.56 32.23 93.0801 32.19 93.6001 32.21C95.2501 32.21 96.8901 32.21 98.5201 32.15L104.61 32.19L104.59 32.21ZM104.69 31.81C103.69 31.23 102.77 30.51 101.95 29.7L98.58 31.53L92.18 23.92C90.24 24.03 88.3601 24.16 86.2401 24.29C86.7401 25.9 87.5601 27.39 88.6301 28.68C89.1101 29.29 89.64 29.88 90.18 30.43C90.67 31.01 91.3 31.45 92.01 31.75C92.53 31.84 93.06 31.88 93.59 31.86C95.24 31.86 96.8901 31.86 98.5201 31.92H104.56L104.66 31.83H104.69V31.81ZM106.52 29.98C106.45 29.31 106.3 28.65 106.07 28.02L105.93 27.54L102.27 29.51C103.06 30.31 103.91 31.03 104.81 31.67L106.5 29.98H106.52ZM108.29 26.27L106.25 27.38L106.91 29.6L108.29 28.22V26.22V26.28V26.27ZM108.29 23.33V25.72C107.75 26.12 107.17 26.46 106.57 26.74C104.08 28.06 101.08 29.78 98.65 30.94C98.55 30.52 98.7 30.08 99.04 29.83C100.7 28.92 102.37 28.09 103.98 27.22C104.62 26.87 107.18 25.5 107.93 24.94C105.38 26.24 100.87 28.24 98.4 29.84C98.3 29.36 98.4001 29.26 98.7101 29.04C100.57 27.73 102.57 26.62 104.66 25.7C105.36 25.39 107.15 24.6 107.85 24.16H107.8C104.84 25.06 102.01 26.35 99.41 28.04L98.3201 28.81L98.17 27.9L98.78 27.36C101.61 24.91 104.78 23.4 107.56 23.33H107.68C107.84 23.33 107.8 23.28 107.61 23.27C106.28 23.19 104.94 23.32 103.64 23.65L103.03 23.82C101.45 24.29 99.93 24.98 98.54 25.87C98.34 26.01 98.1501 26.12 97.9601 26.27L89.81 17.13L90.2101 16.71L89.72 16.12L90.0201 15.93C90.2801 16.03 95.5801 22.18 97.8801 24.79C98.2601 24.61 98.6201 24.5 98.9901 24.35C102.71 22.35 107.54 23.13 108.3 23.27V23.33H108.29ZM108.29 22.98V23.1C104.81 22.2 101.1 22.64 97.92 24.32C94.8 20.97 92.6501 18.5 89.8801 15.34C91.3701 14.56 93.01 14.09 94.68 13.94C95.47 13.86 96.2701 13.83 97.0701 13.85C97.8301 13.8 98.59 13.92 99.29 14.22C99.72 14.52 100.12 14.88 100.49 15.26C101.65 16.42 102.84 17.55 104.01 18.69L108.3 22.97V22.99L108.29 22.98ZM108.64 22.77H108.5L104.2 18.44C103.08 17.28 101.93 16.09 100.77 14.87C100.38 14.51 100.03 14.11 99.73 13.67C99.44 12.97 99.31 12.21 99.36 11.45C99.34 10.66 99.36 9.87998 99.44 9.09998C99.59 7.42998 100.06 5.78998 100.84 4.29998C102.44 5.70998 103.86 6.94998 105.3 8.23997L104.47 18.17L108.13 19.27C108.13 20.43 108.29 21.59 108.59 22.72L108.64 22.78V22.77ZM111.25 22.77H108.84C108.66 21.66 108.57 20.52 108.59 19.39L112.56 20.58C112.48 20.73 112.4 20.87 112.32 21.02C112.03 21.62 111.66 22.19 111.25 22.72V22.78V22.77ZM115.12 21.38L113.74 22.76H111.78L112.89 20.72L115.11 21.38H115.13H115.12ZM117.19 19.31C116.75 18.67 113.89 14.74 109.88 13.49C109.51 13.34 109.18 13.15 108.78 13.02C109 9.54997 109.59 1.44997 109.48 1.19997L109.1 1.05997L109.02 1.82998H108.44L107.74 14.06C107.99 14.06 108.21 14.15 108.44 14.19C110.08 14.54 111.65 15.11 113.12 15.91C113.3 16.01 113.5 16.11 113.67 16.22C114.82 16.9 115.86 17.75 116.75 18.75C116.88 18.9 116.88 18.95 116.75 18.84L116.66 18.75C114.64 16.84 111.34 15.66 107.6 15.4L106.78 15.35L106.24 16.09L107.56 16.33C110.59 16.98 113.51 18.06 116.23 19.52C116.29 19.52 116.31 19.58 116.23 19.57C115.43 19.38 113.6 18.66 112.89 18.4C110.77 17.57 108.57 16.96 106.32 16.57C105.95 16.52 105.81 16.52 105.53 16.93C108.41 17.55 113.02 19.32 115.73 20.2C114.82 20.06 112.07 19.22 111.33 19.01C109.57 18.5 107.83 17.88 105.99 17.37C105.56 17.31 105.14 17.52 104.92 17.88C107.49 18.79 110.81 19.71 113.5 20.5C114.13 20.73 114.78 20.87 115.45 20.95L117.15 19.26L117.19 19.32V19.31ZM117.44 19.05L117.35 19.15C115.51 16.04 112.58 13.74 109.12 12.68C109.29 8.10998 109.52 4.83998 109.78 0.649979C111.39 1.12998 112.88 1.92998 114.19 2.97998C114.79 3.48998 115.37 4.03997 115.91 4.62997C116.49 5.11997 116.93 5.74998 117.23 6.45998C117.32 6.97998 117.36 7.50998 117.34 8.03998C117.34 9.68998 117.34 11.33 117.4 12.96V19.01L117.45 19.06L117.44 19.05ZM117.84 19.15C119.68 16.04 122.61 13.74 126.07 12.68C125.9 8.10998 125.67 4.83998 125.41 0.649979C123.79 1.12998 122.28 1.91998 120.97 2.97998C120.36 3.48998 119.77 4.03997 119.22 4.62997C118.64 5.11997 118.2 5.74998 117.9 6.45998C117.81 6.97998 117.77 7.50998 117.79 8.03998C117.79 9.68998 117.79 11.34 117.73 12.97V19.01L117.82 19.11L117.84 19.16V19.15ZM119.67 20.98L117.98 19.25C118.42 18.61 121.28 14.68 125.29 13.43C125.66 13.27 125.99 13.09 126.39 12.95C126.18 9.47997 125.58 1.37997 125.7 1.12997L126.03 1.04998L126.11 1.81998H126.7L127.39 14.05C127.14 14.05 126.93 14.14 126.7 14.18C125.06 14.53 123.49 15.1 122.02 15.9C121.84 16 121.65 16.1 121.47 16.21C120.32 16.89 119.28 17.74 118.39 18.74C118.26 18.89 118.26 18.94 118.39 18.83L118.48 18.74C120.5 16.83 123.8 15.65 127.54 15.39L128.35 15.33L128.89 16.07L127.57 16.31C124.54 16.96 121.62 18.04 118.89 19.5C118.84 19.5 118.81 19.56 118.89 19.55C119.7 19.36 121.52 18.64 122.23 18.38C124.35 17.55 126.55 16.94 128.8 16.55C129.17 16.5 129.31 16.5 129.59 16.91C126.71 17.53 122.1 19.3 119.39 20.18C120.3 20.04 123.05 19.2 123.79 18.99C125.56 18.48 127.29 17.86 129.13 17.35C129.56 17.29 129.98 17.5 130.2 17.86C127.63 18.78 124.31 19.69 121.63 20.48C121 20.71 120.34 20.85 119.67 20.93V20.98ZM123.37 22.75L122.3 20.68L120.08 21.34L121.46 22.72L123.37 22.76V22.75ZM126.66 22.75H126.52C126.81 21.63 126.97 20.46 126.98 19.3L126.57 19.42C126.57 20.53 126.5 21.65 126.31 22.75H123.92C123.51 22.22 123.14 21.65 122.85 21.05C122.78 20.9 122.69 20.76 122.61 20.61L130.66 18.21L129.83 8.24998C131.28 6.95998 132.7 5.71997 134.29 4.30997C135.07 5.79997 135.54 7.43998 135.69 9.10998C135.77 9.90998 135.8 10.7 135.78 11.5C135.83 12.26 135.72 13.02 135.42 13.72C135.11 14.14 134.75 14.53 134.37 14.88C133.21 16.04 132.08 17.23 130.94 18.4L126.66 22.69V22.76V22.75ZM126.87 23.09V22.95L131.15 18.67C132.33 17.55 133.52 16.4 134.68 15.24C135.05 14.86 135.45 14.5 135.88 14.2C136.58 13.91 137.34 13.78 138.1 13.83C138.9 13.81 139.69 13.83 140.49 13.92C142.16 14.07 143.8 14.54 145.29 15.32C142.55 18.47 140.35 20.94 137.25 24.3C134.07 22.63 130.37 22.19 126.88 23.08L126.87 23.09ZM126.87 25.67C127.4 26.09 127.98 26.45 128.58 26.75C131.07 28.07 134.07 29.79 136.5 30.96C136.6 30.54 136.45 30.1 136.11 29.84C134.45 28.93 132.78 28.1 131.17 27.23C130.53 26.88 127.97 25.51 127.22 24.95C129.77 26.25 134.28 28.25 136.75 29.85C136.89 29.54 136.75 29.18 136.44 29.05C134.58 27.73 132.6 26.59 130.52 25.67C129.82 25.36 128.03 24.57 127.33 24.13H127.39C130.35 25.03 133.18 26.32 135.78 28L136.88 28.77L137.02 27.86L136.41 27.32C133.58 24.87 130.41 23.36 127.63 23.29H127.51C127.35 23.29 127.39 23.24 127.58 23.23C128.91 23.16 130.25 23.29 131.55 23.61L132.16 23.78C133.76 24.26 135.28 24.97 136.68 25.87C136.88 26.01 137.07 26.12 137.26 26.27L145.41 17.13L145.01 16.71L145.5 16.12L145.2 15.94C144.94 16.03 139.64 22.18 137.34 24.79C136.97 24.61 136.6 24.5 136.23 24.35C132.51 22.35 127.68 23.13 126.92 23.27V25.66H126.88L126.87 25.67ZM126.87 28.16V26.21L128.91 27.32L128.25 29.54L126.87 28.16ZM105.63 59.48L104.24 59.81L105.56 58.74L105.62 59.51V59.48H105.63Z" fill="#8C7936"/>
<path d="M125.97 33.53V33.51H125.94C125.85 33.77 125.75 34.03 125.65 34.26C125.59 34.33 125.47 34.47 125.39 34.51C125.48 34.4 125.54 34.26 125.55 34.12C125.7 33.85 125.82 33.55 125.9 33.25V33.23H125.87C125.8 33.5 125.7 33.77 125.58 34.02C125.58 33.91 125.6 33.8 125.58 33.68C125.71 33.42 125.8 33.15 125.85 32.87V32.85H125.82C125.76 33.11 125.68 33.36 125.58 33.6V33.3C125.68 32.97 125.76 32.63 125.82 32.29V32.27H125.79C125.73 32.65 125.63 33.01 125.52 33.37C125.49 33.42 125.47 33.45 125.43 33.49C125.41 33.51 125.4 33.53 125.39 33.54C125.35 33.6 125.31 33.66 125.26 33.74C125.36 33.42 125.46 33.05 125.52 32.78V32.76H125.5C125.44 33.09 125.3 33.52 125.19 33.87C125.11 34 125.04 34.13 125.01 34.27C124.99 34.13 124.99 33.99 125.03 33.85C125.16 33.51 125.27 33.17 125.36 32.83V32.81H125.33C125.22 33.23 125.08 33.63 124.93 34.03C124.8 34.21 124.71 34.4 124.66 34.61C124.6 34.36 124.8 33.89 124.85 33.71C124.26 35.03 123.3 36.04 122.08 36.86C120.86 37.67 119.45 38.13 117.99 38.18H117.74C116.05 38.18 114.41 37.63 113.06 36.62C111.71 35.6 110.73 34.3 110.25 32.67C110.15 32.52 110.01 32.4 109.88 32.4C109.84 32.4 109.81 32.4 109.78 32.43C109.75 32.45 109.72 32.48 109.7 32.5C109.43 32.79 109.77 33.12 109.81 33.16C109.83 33.18 109.85 33.21 109.86 33.23C109.86 33.26 109.86 33.29 109.86 33.31C109.86 33.36 109.81 33.39 109.75 33.41C109.7 33.43 109.66 33.46 109.62 33.5C109.58 33.55 109.57 33.59 109.56 33.64C109.55 33.7 109.56 33.77 109.58 33.82L109.62 33.9H109.53H109.47C109.4 33.9 109.32 33.92 109.27 33.96C109.27 33.96 109.25 33.99 109.24 34C109.24 34 109.24 34.03 109.24 34.05C109.27 34.27 109.56 34.48 109.56 34.48V34.54C109.56 34.54 109.57 34.58 109.58 34.59C109.58 34.61 109.61 34.62 109.63 34.63C109.65 34.63 109.67 34.65 109.69 34.65C109.73 34.65 109.77 34.67 109.81 34.67H109.86C109.86 34.67 109.91 34.67 109.94 34.67C109.79 34.81 109.89 35.44 110.52 35.5H110.61C110.32 35.89 110.81 36.09 110.81 36.25C110.81 36.31 110.73 36.38 110.66 36.42C110.56 36.47 110.45 36.52 110.45 36.67C110.45 36.84 110.55 37.01 110.94 37.01C111.08 37.01 111.23 37.01 111.23 37.12C111.23 37.17 111.18 37.21 111.12 37.25C111.05 37.3 110.97 37.35 110.97 37.44C110.97 37.46 110.97 37.65 111.26 37.75L111.38 37.79L111.27 37.84C111.27 37.84 111.22 37.88 111.19 37.9C111.17 37.93 111.15 37.96 111.15 37.99C111.15 38.08 111.22 38.16 111.38 38.23C111.5 38.28 111.62 38.3 111.75 38.31V38.33L111.77 38.35C111.77 38.35 111.8 38.38 111.82 38.39C111.84 38.39 111.86 38.39 111.86 38.41H111.91V38.46C111.91 38.46 111.91 38.52 111.93 38.55C111.94 38.58 111.97 38.61 111.99 38.62C112.05 38.68 112.13 38.75 112.2 38.8L112.33 38.89H112.18C111.94 38.91 111.74 39.05 111.7 39.23C111.7 39.28 111.7 39.31 111.7 39.36C111.7 39.41 111.73 39.44 111.75 39.48C111.82 39.56 111.92 39.62 112.02 39.63H112.05C112.11 39.63 112.19 39.63 112.25 39.59C112.38 39.56 112.42 39.56 112.47 39.73C112.52 39.87 112.55 39.96 112.67 39.96H112.75C112.75 39.96 112.59 40.42 112.79 40.6C112.82 40.62 112.85 40.63 112.87 40.62C112.97 40.62 113.12 40.48 113.23 40.35C113.38 40.17 113.5 40.15 113.52 40.15H113.55C113.55 40.15 113.65 40.2 113.71 40.21C113.74 40.21 113.77 40.23 113.79 40.26C113.82 40.28 113.84 40.31 113.84 40.34C113.84 40.38 113.84 40.4 113.84 40.44C113.84 40.48 113.81 40.5 113.79 40.52C113.71 40.6 113.67 40.72 113.67 40.83C113.67 40.88 113.67 40.93 113.69 40.98C113.71 41.03 113.74 41.07 113.76 41.11C113.8 41.15 113.83 41.17 113.88 41.19C113.93 41.21 113.98 41.22 114.03 41.22C114.09 41.22 114.15 41.22 114.2 41.19C114.25 41.16 114.3 41.14 114.35 41.09C114.42 41 114.47 40.89 114.46 40.77V40.71C114.46 40.71 114.48 40.66 114.49 40.65C114.49 40.65 114.51 40.63 114.53 40.62C114.53 40.62 114.56 40.62 114.58 40.62C114.62 40.62 114.64 40.62 114.67 40.65C114.73 40.71 114.82 40.74 114.89 40.74C114.94 40.74 115.01 40.71 115.05 40.68C115.09 40.65 115.11 40.62 115.13 40.57L115.16 40.5L115.22 40.55C115.22 40.55 115.27 40.6 115.31 40.61C115.35 40.63 115.38 40.63 115.42 40.63C115.49 40.63 115.56 40.61 115.62 40.57L115.69 40.52V40.62C115.69 40.62 115.69 40.67 115.71 40.7C115.71 40.72 115.74 40.75 115.76 40.76C115.86 40.82 116.05 40.74 116.05 40.74C116.05 40.74 115.77 40.9 115.74 40.93C115.74 40.93 115.72 40.95 115.72 40.96V41C115.72 41.09 115.89 41.13 116 41.13C116.04 41.13 116.07 41.13 116.11 41.13C116.16 41.13 116.21 41.09 116.26 41.08C116.26 41.08 116.73 40.73 117.09 40.6C116.83 40.75 116.6 40.91 116.35 41.08C116.33 41.1 116.31 41.12 116.3 41.13C116.3 41.16 116.3 41.18 116.3 41.2C116.33 41.31 116.55 41.33 116.61 41.33C116.72 41.33 116.96 41.27 117.03 41.2C117.03 41.2 117.03 41.2 117.03 41.18C117.16 41.03 117.3 40.91 117.47 40.8L117.5 40.78L117.53 40.8C117.69 40.89 118.03 41.09 118.22 41.19L118.28 41.23L118.33 41.27C118.33 41.27 118.39 41.3 118.42 41.3C118.46 41.3 118.52 41.3 118.58 41.3C118.89 41.3 119.12 41.17 119.12 41.06C119.12 41.04 119.12 41.01 119.1 41.01C119.09 40.99 119.07 40.98 119.05 40.97C118.9 40.91 118.38 40.66 118.02 40.48L118.32 40.51H118.27C118.45 40.52 118.9 40.78 119.15 40.93C119.21 40.96 119.26 40.97 119.32 40.97C119.44 40.97 119.64 40.92 119.66 40.82C119.66 40.79 119.66 40.76 119.66 40.74C119.65 40.71 119.62 40.69 119.6 40.69L118.43 40.22L118.46 40.13C119.11 40.4 119.77 40.64 120.44 40.84L120.38 40.89C120.3 40.95 120.07 41.11 119.57 41.18C119.73 41.22 119.89 41.23 120.05 41.23C120.42 41.23 120.79 41.13 121.12 40.97C121.14 40.8 121.17 40.62 121.22 40.45V40.41H121.55L121.49 40.49C121.44 40.56 121.39 40.65 121.36 40.74C121.61 40.64 121.84 40.5 122.06 40.35C122.16 40.22 122.24 40.08 122.28 39.91C122.27 39.91 122.26 39.88 122.25 39.86C121.93 39.9 121.1 39.95 120.82 39.91C120.82 39.91 120.89 39.86 120.92 39.86C121.4 39.86 121.89 39.76 122.35 39.6C122.42 39.57 122.5 39.55 122.57 39.54C122.89 39.45 123.19 39.31 123.48 39.14V39.12L123.47 39.11H123.45C122.94 39.4 122.62 39.5 122.25 39.58C121.95 39.62 121.55 39.43 121.55 39.43C122 39.49 122.68 39.23 123.19 38.94C123.48 38.82 123.77 38.65 124.02 38.45V38.43H124C123.8 38.59 123.59 38.73 123.36 38.84C123.08 38.92 122.78 38.94 122.48 38.9C122.79 38.87 123.2 38.66 123.53 38.46C123.91 38.27 124.25 38.05 124.58 37.79V37.77C124.31 37.97 124.03 38.16 123.74 38.32C123.51 38.37 123.28 38.37 123.05 38.32C123.52 38.29 123.89 38.06 124.25 37.76C124.52 37.59 124.78 37.38 125.02 37.16V37.14H125C124.79 37.34 124.56 37.52 124.33 37.68C124.08 37.76 123.84 37.79 123.58 37.76C124.02 37.71 124.35 37.45 124.6 37.2C124.83 37.02 125.04 36.82 125.24 36.6V36.58H125.22C125.07 36.74 124.92 36.89 124.75 37.04C124.61 37.11 124.47 37.15 124.31 37.15C124.52 37.09 124.84 36.78 125.05 36.51C125.34 36.21 125.6 35.88 125.82 35.52V35.5H125.8C125.59 35.83 125.35 36.14 125.09 36.42C124.98 36.45 124.87 36.47 124.75 36.47C124.95 36.38 125.07 36.13 125.3 35.8C125.53 35.55 125.72 35.27 125.88 34.98V34.96C125.75 35.2 125.6 35.42 125.43 35.62C125.36 35.69 125.27 35.74 125.17 35.76C125.33 35.57 125.47 35.37 125.58 35.14C125.74 34.92 125.88 34.67 125.98 34.42V34.4H125.97H125.94C125.84 34.67 125.69 34.9 125.53 35.13C125.47 35.18 125.39 35.23 125.32 35.26C125.56 35.03 125.64 34.71 125.72 34.43C125.83 34.18 125.94 33.9 126.04 33.61M116.15 40.57L116.22 40.43C116.27 40.33 116.28 40.22 116.27 40.12V39.99L116.34 40.05C116.43 40.12 116.51 40.19 116.6 40.25L116.66 40.3L116.16 40.57H116.15Z" fill="black"/>
<path d="M111.09 35.14C111.27 35.28 111.28 35.36 111.24 35.43C111.2 35.5 111.13 35.68 111.29 35.76C111.43 35.82 111.56 35.57 111.59 35.4C111.43 35.2 111.29 35.01 111.15 34.8C111.11 34.8 111.09 34.83 111.06 34.86C111.03 34.89 111.02 34.91 111.02 34.95C111.02 34.99 111.02 35.02 111.02 35.05C111.05 35.09 111.08 35.11 111.09 35.14Z" fill="#015844"/>
<path d="M112.55 36.6901C112.55 36.6901 112.59 36.7601 112.6 36.7601C112.62 36.6901 112.62 36.6101 112.6 36.5401C112.58 36.4701 112.54 36.4001 112.48 36.3601C112.45 36.3301 112.42 36.3201 112.37 36.3101C112.33 36.3101 112.29 36.3101 112.26 36.3301C112.43 36.4001 112.52 36.6101 112.55 36.6901Z" fill="#015844"/>
<path d="M116.7 39.91C116.67 39.56 116.31 39.91 116.31 39.91C116.45 40.04 116.59 40.16 116.75 40.27C116.79 40.25 116.78 40.2499 116.81 40.2299L116.78 40.1899C116.73 40.1099 116.71 40.0199 116.7 39.9199" fill="#015844"/>
<path d="M115.44 40.14C115.3 40.14 115.18 40.04 115.08 39.96C115.08 39.96 115 39.88 114.93 39.93C114.89 39.97 114.91 40.08 114.95 40.13C115 40.19 115.02 40.25 115.05 40.31C115.1 40.38 115.22 40.49 115.31 40.47C115.47 40.44 115.57 40.37 115.52 40.1C115.49 40.13 115.46 40.14 115.44 40.14Z" fill="#015844"/>
<path d="M110.77 34.58C110.62 34.16 110.41 33.98 110.18 33.77L110.14 33.74C110.14 33.74 110.14 33.73 110.14 33.72L110.18 33.75C110.38 33.9 110.54 34.1 110.67 34.31C110.5 33.84 110.27 33.41 109.98 32.99C109.98 32.99 109.98 32.97 109.99 32.97C110.32 33.47 110.59 33.91 110.78 34.6C110.94 34.83 110.81 34.27 110.81 34.27C110.58 33.85 110.39 33.41 110.24 32.95C110.16 32.71 109.85 32.29 109.64 32.56C109.51 32.73 109.5 32.86 109.8 33.2C109.82 33.22 109.84 33.25 109.85 33.27C109.85 33.3 109.85 33.33 109.85 33.36C109.85 33.4 109.83 33.42 109.81 33.44C109.79 33.47 109.76 33.49 109.75 33.5C109.45 33.64 109.52 33.81 109.65 33.9C109.74 33.96 110.1 34.2 110.08 34.4C110.06 34.6 109.83 34.63 109.84 34.88C109.84 35.04 110 35.42 110.39 35.42C110.69 35.4 110.89 35.02 110.76 34.58" fill="#015844"/>
<path d="M111.84 35.7C111.76 35.7 111.59 35.7 111.54 35.76C111.46 35.85 111.25 35.96 111.15 35.73C111.03 35.47 110.92 35.32 110.66 35.47C110.4 35.62 110.53 35.9 110.66 36.02C110.79 36.15 110.96 36.28 110.73 36.41C110.54 36.51 110.42 36.52 110.42 36.67C110.42 36.77 110.47 36.93 110.89 36.93C111.05 36.93 111.26 36.96 111.25 37.12C111.25 37.33 110.95 37.3 110.95 37.43C110.95 37.57 111.1 37.7 111.44 37.72C111.57 37.72 111.7 37.69 111.81 37.62C111.8 37.59 111.8 37.57 111.8 37.54C111.8 37.43 111.89 37.36 111.98 37.28C112.02 37.25 112.02 37.23 112.02 37.23C112.02 37.23 112.01 37.18 111.87 37.07C111.82 37.02 111.77 36.97 111.73 36.91C111.64 36.83 111.55 36.74 111.45 36.64C111.4 36.64 111.33 36.64 111.28 36.64C111.12 36.64 110.97 36.62 110.81 36.58V36.56H110.82C111.02 36.61 111.22 36.62 111.42 36.61C111.16 36.33 110.93 36.02 110.73 35.69V35.67C110.93 35.99 111.16 36.29 111.42 36.57C111.42 36.36 111.42 36.15 111.44 35.94H111.46V35.96C111.43 36.18 111.42 36.41 111.44 36.63C111.51 36.7 111.59 36.78 111.66 36.84C111.63 36.75 111.63 36.66 111.66 36.58C111.7 36.5 111.76 36.42 111.83 36.38C111.9 36.33 111.99 36.31 112.08 36.31H112.14C112.14 36.21 112.14 36.11 112.1 36.02C112 35.91 111.9 35.81 111.8 35.7" fill="#015844"/>
<path d="M112.47 36.7C112.39 36.51 112.2 36.25 111.91 36.44C111.7 36.58 111.69 36.85 111.91 37.02C112.09 37.17 112.15 37.23 112 37.35C111.85 37.46 111.8 37.57 111.98 37.73C112.16 37.88 112.27 37.99 112.2 38.1C112.07 38.28 111.72 38.37 111.93 38.57C112.01 38.66 112.11 38.74 112.21 38.79V38.75C112.21 38.75 112.21 38.66 112.21 38.62C112.21 38.57 112.25 38.54 112.27 38.51C112.29 38.49 112.32 38.47 112.34 38.46C112.37 38.46 112.39 38.44 112.43 38.44C112.48 38.44 112.52 38.44 112.57 38.48C112.62 38.52 112.68 38.54 112.74 38.54C112.78 38.54 112.83 38.54 112.87 38.5C112.91 38.48 112.92 38.44 112.93 38.41C112.77 38.37 112.61 38.32 112.46 38.24V38.22H112.49C112.64 38.29 112.78 38.35 112.94 38.38C112.94 38.32 112.96 38.27 112.99 38.22C112.91 38.03 112.82 37.84 112.71 37.66C112.61 37.61 112.5 37.59 112.39 37.58C112.29 37.56 112.19 37.54 112.08 37.52V37.5C112.18 37.53 112.29 37.55 112.39 37.56C112.49 37.56 112.58 37.6 112.67 37.62C112.47 37.31 112.25 37 112.01 36.72V36.7H112.03C112.28 36.99 112.5 37.29 112.7 37.6C112.7 37.32 112.74 37.06 112.78 36.98V37C112.74 37.07 112.7 37.33 112.7 37.67C112.8 37.84 112.89 38.02 112.97 38.21C113.01 38.16 113.04 38.11 113.1 38.07C113.13 38.05 113.16 38.03 113.2 38.02H113.22C113.43 38.02 113.69 38.23 113.84 38.42C113.88 38.42 113.92 38.42 113.96 38.42C114.07 38.42 114.1 38.42 114.11 38.36C114.13 38.29 114.11 38.27 113.87 38.16C113.84 38.16 113.81 38.13 113.77 38.11C113.72 38.09 113.67 38.05 113.63 38.01C113.59 37.96 113.57 37.92 113.55 37.86C113.55 37.8 113.55 37.75 113.55 37.7C113.55 37.65 113.59 37.6 113.61 37.55C113.55 37.4 113.44 37.28 113.22 37.33C113.12 37.35 112.97 37.39 112.93 37.16C112.88 36.93 112.81 36.72 112.65 36.82C112.56 36.88 112.47 36.9 112.4 36.71" fill="#015844"/>
<path d="M115.93 38.75C115.97 38.57 115.91 38.09 115.53 38.24C115.23 38.35 115.18 38.33 115.16 38.14C115.14 37.94 114.91 37.85 114.71 37.85C114.51 37.85 114.53 37.8999 114.45 37.7899C114.38 37.6799 113.94 37.45 113.94 37.45C113.89 37.45 113.84 37.49 113.8 37.52C113.7 37.66 113.61 37.8899 113.86 38.0099C114.11 38.1299 114.31 38.13 114.25 38.32C114.19 38.56 113.92 38.3699 113.86 38.5399C113.82 38.6499 113.98 38.94 114.25 38.84C114.5 38.75 114.83 38.73 114.85 38.92C114.88 39.22 114.27 39.2 114.58 39.56C114.73 39.72 115.07 39.7 115.29 39.66C115.4 39.63 115.49 39.5699 115.56 39.4799C115.54 39.3999 115.52 39.3099 115.5 39.2299C115.27 39.1599 115.12 39.15 115.01 39.2V39.1799V39.17C115.16 39.11 115.31 39.1199 115.5 39.1799C115.36 38.8499 115.13 38.6599 114.89 38.4799C114.74 38.5099 114.6 38.53 114.44 38.53H114.36V38.5099C114.51 38.5099 114.67 38.51 114.83 38.47L114.78 38.4299C114.52 38.2499 114.24 38.05 114.09 37.7V37.6799H114.11C114.25 38.0299 114.5 38.2 114.79 38.39C114.82 38.41 114.84 38.43 114.86 38.44C114.86 38.28 114.82 38.13 114.77 37.99V37.97H114.79C114.85 38.12 114.89 38.3 114.89 38.46C115.12 38.62 115.34 38.8 115.47 39.09C115.47 39.05 115.47 38.9899 115.45 38.9299C115.42 38.7899 115.41 38.6599 115.4 38.5099H115.42C115.42 38.6599 115.44 38.7899 115.47 38.9299C115.49 39.0199 115.5 39.11 115.5 39.2C115.53 39.27 115.55 39.3499 115.56 39.4299C115.56 39.4099 115.59 39.3799 115.6 39.3699C115.66 39.2399 115.72 39.11 115.77 38.99C115.84 38.93 115.88 38.8499 115.9 38.7599" fill="#015844"/>
<path d="M115.46 39.7C115.32 39.75 115.17 39.77 115.02 39.76C114.82 39.76 114.67 39.71 114.57 39.61C114.57 39.61 114.57 39.61 114.55 39.59C114.5 39.64 114.46 39.69 114.42 39.74C114.42 39.93 114.47 40.12 114.56 40.29V40.31C114.56 40.31 114.56 40.31 114.56 40.3C114.47 40.15 114.42 39.96 114.42 39.78C114.22 40.09 114.1 40.44 114.07 40.8C114.1 40.43 114.22 40.1 114.41 39.79C114.31 39.85 114.15 39.97 114.05 40.05V40.03C114.2 39.9 114.48 39.71 114.5 39.7C114.54 39.65 114.59 39.59 114.64 39.55C114.61 39.52 114.59 39.49 114.58 39.46C114.58 39.42 114.56 39.39 114.56 39.35C114.56 39.23 114.67 39.16 114.76 39.1C114.79 39.08 114.82 39.06 114.84 39.04C114.81 39 114.79 38.98 114.78 38.97C114.73 38.93 114.69 38.91 114.63 38.88C114.57 38.86 114.52 38.85 114.46 38.86C114.46 38.86 114.44 38.86 114.42 38.86C114.38 38.86 114.34 38.89 114.3 38.89C114.18 38.95 114.23 39.08 114.3 39.14C114.33 39.14 114.35 39.18 114.36 39.2C114.38 39.23 114.39 39.25 114.39 39.28C114.39 39.31 114.39 39.33 114.37 39.36C114.36 39.39 114.33 39.41 114.31 39.42C114.16 39.52 114 39.57 113.82 39.59C113.58 39.64 113.48 39.73 113.47 39.85C113.45 40.11 113.77 40.01 113.86 40.11C113.89 40.14 113.91 40.17 113.91 40.21C113.91 40.25 113.93 40.28 113.91 40.32C113.91 40.36 113.91 40.39 113.87 40.42C113.85 40.46 113.83 40.48 113.8 40.5C113.76 40.53 113.74 40.56 113.72 40.61C113.7 40.66 113.69 40.7 113.69 40.75C113.69 40.8 113.69 40.84 113.73 40.89C113.76 40.94 113.77 40.97 113.81 41C113.97 41.13 114.26 41.06 114.3 40.85C114.35 40.64 114.28 40.51 114.44 40.46C114.6 40.4 114.76 40.67 114.98 40.53C115.19 40.39 114.91 40.18 114.9 40C114.9 39.82 115.06 39.77 115.17 39.87C115.28 39.97 115.45 40.12 115.56 40.01C115.61 39.95 115.59 39.8 115.47 39.7" fill="#015844"/>
<path d="M117.99 40.27C118.13 40.1 118.12 39.8 117.79 39.64C117.5 39.49 118.06 39.29 117.85 39.09C117.65 38.88 117.54 38.98 117.19 38.96C116.84 38.94 117.09 38.67 116.89 38.43C116.79 38.31 116.64 38.32 116.49 38.4C116.31 38.51 115.97 38.9 115.8 39.27C115.9 39.25 115.99 39.23 116.07 39.21C116.32 39.09 116.55 38.94 116.74 38.74H116.75V38.76C116.58 38.92 116.39 39.06 116.18 39.18C116.46 39.13 116.67 39.13 116.88 39.22C117.04 39.27 117.49 39.33 117.67 39.26H117.69V39.28C117.54 39.34 117.22 39.32 117.02 39.28C117.22 39.4 117.42 39.62 117.7 39.96V39.98C117.43 39.64 117.23 39.44 117.03 39.31C117.18 39.46 117.18 39.58 117.17 39.74C117.17 39.55 117.17 39.43 116.93 39.24C116.72 39.16 116.5 39.17 116.19 39.22C116.29 39.27 116.37 39.35 116.43 39.44V39.46H116.41C116.35 39.36 116.26 39.28 116.14 39.23C116.05 39.25 115.95 39.27 115.85 39.29C115.8 39.39 115.78 39.49 115.76 39.59C115.76 39.64 115.78 39.68 115.81 39.73C115.84 39.78 115.86 39.81 115.9 39.83C116.28 40.12 116.32 39.71 116.64 39.68C116.9 39.65 116.79 39.92 116.92 40.14C117.05 40.36 117.19 40.19 117.3 40.11C117.4 40.04 117.46 39.99 117.56 40.19C117.59 40.23 117.62 40.27 117.66 40.31C117.71 40.34 117.75 40.36 117.81 40.36C117.86 40.36 117.91 40.36 117.96 40.34C117.99 40.32 118.03 40.29 118.06 40.26" fill="#015844"/>
<path d="M113.77 39.56C113.99 39.52 114.18 39.45 114.18 39.32C114.18 39.24 114.03 39.19 114.08 39.03C114.08 38.99 114.08 38.97 114.06 38.93C113.94 38.9 113.81 38.88 113.68 38.88C113.53 38.98 113.41 39.12 113.3 39.25H113.27V39.23C113.37 39.08 113.49 38.97 113.62 38.86C113.41 38.86 113.2 38.91 113 38.99C112.92 39.15 112.82 39.29 112.7 39.43H112.67V39.41C112.78 39.28 112.87 39.15 112.95 39.01C112.75 39.08 112.55 39.13 112.34 39.13C112.28 39.13 112.23 39.13 112.17 39.13V39.11C112.41 39.14 112.65 39.11 112.87 39.02C112.81 38.99 112.73 38.96 112.68 38.92C112.63 38.88 112.56 38.86 112.5 38.82V38.8H112.51C112.57 38.83 112.64 38.86 112.7 38.9C112.77 38.95 112.86 38.99 112.95 39H112.98C113.18 38.91 113.4 38.86 113.62 38.85C113.47 38.76 113.22 38.6 113.22 38.6V38.58C113.22 38.58 113.57 38.8 113.68 38.86C113.79 38.86 113.89 38.88 114 38.9C113.95 38.87 113.91 38.84 113.88 38.79C113.85 38.75 113.83 38.71 113.82 38.66C113.81 38.61 113.81 38.56 113.82 38.51C113.84 38.48 113.86 38.46 113.87 38.44C113.7 38.23 113.36 37.99 113.2 38.1C112.95 38.27 113.08 38.48 112.92 38.57C112.86 38.61 112.8 38.62 112.73 38.62C112.67 38.62 112.6 38.59 112.55 38.56C112.52 38.54 112.49 38.53 112.45 38.53C112.41 38.53 112.39 38.53 112.36 38.56C112.33 38.58 112.31 38.61 112.3 38.63C112.3 38.66 112.28 38.69 112.28 38.73C112.28 38.93 112.32 38.93 112.15 38.94C112 38.96 111.69 38.98 111.65 39.22C111.6 39.47 111.85 39.54 111.93 39.54C112.13 39.54 112.32 39.39 112.39 39.57C112.45 39.74 112.46 39.87 112.59 39.87C112.86 39.87 112.88 39.57 113.08 39.56C113.17 39.56 113.31 39.66 113.37 39.74C113.42 39.67 113.54 39.61 113.76 39.57" fill="#015844"/>
<path d="M119.35 40.62C118.93 40.47 118.38 40.24 118.38 40.24C118.34 40.29 118.28 40.33 118.21 40.34C118.48 40.48 119.02 40.72 119.02 40.72C119.07 40.64 119.27 40.61 119.34 40.62" fill="#015844"/>
<path d="M118.88 40.96C118.39 40.92 118.1 41.17 118.35 41.2C118.83 41.26 119.15 40.98 118.88 40.96Z" fill="#015844"/>
<path d="M119.52 40.7101C119.29 40.6301 119.03 40.7801 119.16 40.8601C119.35 40.9601 119.74 40.8001 119.52 40.7101Z" fill="#015844"/>
<path d="M118.71 40.86C118.53 40.78 118.17 40.62 117.84 40.47C117.72 40.53 117.6 40.61 117.49 40.68C117.77 40.83 118.05 40.99 118.15 41.04C118.22 40.97 118.31 40.91 118.4 40.89C118.51 40.86 118.61 40.85 118.71 40.86Z" fill="#015844"/>
<path d="M117.68 22.75C116.14 22.75 114.64 23.21 113.36 24.07C112.08 24.93 111.08 26.14 110.49 27.56C109.9 28.99 109.75 30.55 110.04 32.06C110.34 33.57 111.08 34.96 112.17 36.05C113.26 37.14 114.65 37.88 116.16 38.18C117.67 38.48 119.23 38.33 120.66 37.73C122.09 37.14 123.3 36.14 124.15 34.86C125.01 33.58 125.47 32.07 125.47 30.54C125.47 29.52 125.27 28.5 124.88 27.56C124.49 26.62 123.91 25.76 123.2 25.04C122.48 24.32 121.62 23.74 120.68 23.35C119.74 22.97 118.72 22.76 117.7 22.76" fill="#AA8B2F"/>
<path d="M117.7 23.3C113.71 23.3 110.47 26.52 110.46 30.51C110.46 34.5 113.68 37.75 117.66 37.76C121.65 37.76 124.89 34.54 124.9 30.55C124.9 26.56 121.68 23.31 117.7 23.3Z" fill="#00B5E2"/>
<path d="M123.81 30.54C123.81 27.16 121.07 24.42 117.69 24.42C114.31 24.42 111.57 27.16 111.57 30.54C111.57 33.92 114.31 36.67 117.69 36.67C121.07 36.67 123.81 33.93 123.81 30.54Z" fill="#EE3441"/>
<path d="M122.69 30.54C122.69 27.77 120.45 25.53 117.68 25.53C114.91 25.53 112.67 27.77 112.67 30.54C112.67 33.31 114.91 35.55 117.68 35.55C120.45 35.55 122.69 33.31 122.69 30.54Z" fill="#4F9E45"/>
<path d="M117.55 38.46C117.65 38.56 117.71 38.68 117.74 38.82C117.88 38.74 118.08 38.52 118.01 38.42C117.96 38.34 117.72 38.36 117.54 38.47" fill="#AA8B2F"/>
<path d="M117.32 38.6C117.32 38.6 117.3 38.6 117.29 38.6C117.29 38.6 117.29 38.6 117.27 38.62V38.65C117.27 38.65 117.27 38.67 117.27 38.68C117.27 38.68 117.29 38.68 117.3 38.68H117.33C117.33 38.68 117.35 38.68 117.35 38.66C117.35 38.66 117.35 38.64 117.35 38.63C117.35 38.62 117.35 38.6 117.35 38.59C117.35 38.59 117.32 38.59 117.31 38.59" fill="#AA8B2F"/>
<path d="M117.49 38.5C117.49 38.5 117.49 38.48 117.49 38.47C117.49 38.47 117.49 38.47 117.47 38.45H117.44C117.44 38.45 117.42 38.45 117.41 38.45C117.41 38.45 117.41 38.4699 117.41 38.4799V38.5099C117.41 38.5099 117.41 38.53 117.43 38.53C117.43 38.53 117.45 38.53 117.46 38.53H117.48C117.48 38.53 117.48 38.53 117.5 38.53C117.5 38.53 117.5 38.5299 117.5 38.5099V38.49" fill="#AA8B2F"/>
<path d="M117.48 38.62C117.48 38.62 117.46 38.62 117.45 38.62C117.45 38.62 117.45 38.62 117.43 38.64V38.67C117.43 38.67 117.43 38.69 117.43 38.7C117.43 38.7 117.45 38.7 117.46 38.7H117.49C117.49 38.7 117.51 38.7 117.51 38.68C117.51 38.66 117.51 38.66 117.51 38.65V38.63C117.51 38.63 117.51 38.63 117.51 38.61C117.51 38.61 117.51 38.61 117.49 38.61H117.47" fill="#AA8B2F"/>
<path d="M117.59 38.73C117.59 38.73 117.57 38.73 117.56 38.73C117.56 38.73 117.56 38.73 117.54 38.75V38.78C117.54 38.78 117.54 38.8 117.54 38.81C117.54 38.81 117.56 38.81 117.57 38.81H117.6C117.6 38.81 117.62 38.81 117.62 38.79C117.62 38.79 117.62 38.77 117.62 38.76C117.62 38.75 117.62 38.73 117.62 38.72C117.62 38.72 117.6 38.72 117.58 38.72" fill="#AA8B2F"/>
<path d="M117.44 38.76C117.44 38.76 117.42 38.76 117.41 38.76C117.41 38.76 117.41 38.76 117.39 38.78V38.81C117.39 38.81 117.39 38.83 117.39 38.84C117.39 38.84 117.41 38.84 117.42 38.84H117.45C117.45 38.84 117.47 38.84 117.47 38.82C117.47 38.8 117.47 38.8 117.47 38.79C117.47 38.79 117.47 38.76 117.47 38.75C117.45 38.75 117.44 38.75 117.43 38.75" fill="#AA8B2F"/>
<path d="M115.77 40.28C115.67 40.38 115.61 40.58 115.7 40.64C115.82 40.71 116.02 40.49 116.02 40.49C115.96 40.41 115.87 40.33 115.77 40.27" fill="#AA8B2F"/>
<path d="M115.98 40.19C115.98 40.19 115.98 40.17 115.98 40.16C115.98 40.16 115.98 40.16 115.96 40.14H115.93C115.93 40.14 115.91 40.15 115.9 40.15C115.9 40.15 115.9 40.17 115.9 40.18V40.21C115.9 40.21 115.9 40.23 115.92 40.23C115.93 40.23 115.94 40.23 115.95 40.23C115.96 40.23 115.98 40.23 115.99 40.23C115.99 40.23 115.99 40.2 115.99 40.19" fill="#AA8B2F"/>
<path d="M116.09 40.13C116.09 40.13 116.07 40.13 116.06 40.13C116.06 40.13 116.06 40.13 116.04 40.15V40.18C116.04 40.18 116.04 40.2 116.04 40.21C116.04 40.21 116.06 40.21 116.07 40.21H116.1C116.1 40.21 116.12 40.21 116.12 40.19C116.12 40.17 116.12 40.17 116.12 40.16C116.12 40.15 116.12 40.13 116.12 40.12C116.1 40.12 116.09 40.12 116.08 40.12" fill="#AA8B2F"/>
<path d="M116.07 40.3C116.07 40.3 116.05 40.3 116.04 40.3C116.04 40.3 116.04 40.3001 116.02 40.3201V40.3501C116.02 40.3501 116.02 40.3701 116.02 40.3801C116.02 40.3801 116.04 40.3801 116.05 40.3801H116.08C116.08 40.3801 116.1 40.38 116.1 40.36C116.1 40.35 116.1 40.34 116.1 40.33V40.31C116.1 40.31 116.1 40.31 116.1 40.29C116.1 40.29 116.1 40.29 116.08 40.29H116.06L116.07 40.3Z" fill="#AA8B2F"/>
<path d="M112.75 39.97C112.64 40.19 112.66 40.45 112.75 40.52C112.85 40.6 113.14 40.26 113.18 40.16C113.06 40.05 112.91 39.98 112.76 39.97" fill="#AA8B2F"/>
<path d="M112.91 39.86C112.91 39.86 112.91 39.88 112.91 39.89C112.91 39.89 112.91 39.89 112.93 39.91H112.96C112.96 39.91 112.98 39.91 112.99 39.91C112.99 39.91 112.99 39.89 112.99 39.88V39.85C112.99 39.85 112.99 39.83 112.97 39.83C112.97 39.83 112.95 39.83 112.94 39.83C112.93 39.83 112.91 39.83 112.9 39.83C112.9 39.85 112.9 39.8599 112.9 39.8699" fill="#AA8B2F"/>
<path d="M113.06 39.82C113.06 39.82 113.06 39.84 113.06 39.85C113.06 39.85 113.06 39.85 113.08 39.87H113.11C113.11 39.87 113.13 39.86 113.14 39.86C113.14 39.86 113.14 39.84 113.14 39.83V39.8C113.14 39.8 113.14 39.78 113.12 39.78C113.1 39.78 113.1 39.78 113.09 39.78C113.08 39.78 113.06 39.78 113.05 39.78C113.05 39.78 113.05 39.81 113.05 39.82" fill="#AA8B2F"/>
<path d="M113.15 39.93C113.15 39.93 113.13 39.93 113.12 39.93C113.12 39.93 113.12 39.93 113.1 39.95V39.98C113.1 39.98 113.1 40 113.1 40.01C113.1 40.01 113.12 40.01 113.13 40.01H113.16C113.16 40.01 113.18 40.0101 113.18 39.9901C113.18 39.9701 113.18 39.9701 113.18 39.9601C113.18 39.9501 113.18 39.93 113.18 39.92C113.18 39.92 113.15 39.92 113.14 39.92" fill="#AA8B2F"/>
<path d="M113.3 39.93C113.3 39.93 113.28 39.93 113.27 39.93C113.27 39.93 113.27 39.93 113.25 39.95V39.98C113.25 39.98 113.25 40 113.25 40.01C113.25 40.01 113.27 40.01 113.28 40.01H113.31C113.31 40.01 113.33 40.0101 113.33 39.9901C113.33 39.9701 113.33 39.9701 113.33 39.9601C113.33 39.9501 113.33 39.93 113.33 39.92C113.33 39.92 113.3 39.92 113.29 39.92" fill="#AA8B2F"/>
<path d="M113.3 39.79C113.3 39.79 113.3 39.77 113.3 39.76C113.3 39.76 113.3 39.76 113.28 39.74H113.25C113.25 39.74 113.23 39.74 113.22 39.74C113.22 39.74 113.22 39.76 113.22 39.77V39.8C113.22 39.8 113.22 39.82 113.24 39.82C113.24 39.82 113.26 39.82 113.27 39.82C113.28 39.82 113.3 39.82 113.31 39.82C113.31 39.82 113.31 39.79 113.31 39.78" fill="#AA8B2F"/>
<path d="M113.04 39.62C113.04 39.62 113.02 39.62 113.01 39.62C113.01 39.62 113.01 39.62 112.99 39.64V39.67C112.99 39.67 113 39.69 113 39.7C113 39.7 113.02 39.7 113.03 39.7H113.06C113.06 39.7 113.08 39.7 113.08 39.68C113.08 39.68 113.08 39.66 113.08 39.65C113.08 39.64 113.08 39.62 113.08 39.61C113.08 39.61 113.05 39.61 113.04 39.61" fill="#AA8B2F"/>
<path d="M111.14 37.99C111.14 38.11 111.42 38.22 111.66 38.22C111.69 38.08 111.69 37.9499 111.66 37.8099C111.45 37.7899 111.14 37.87 111.14 37.99Z" fill="#AA8B2F"/>
<path d="M111.77 38.21C111.77 38.21 111.75 38.21 111.74 38.21C111.74 38.21 111.74 38.2099 111.72 38.2299V38.2599C111.72 38.2599 111.72 38.2799 111.72 38.2899C111.72 38.2899 111.74 38.2899 111.75 38.2899H111.78C111.78 38.2899 111.8 38.29 111.8 38.27C111.8 38.26 111.8 38.25 111.8 38.24C111.8 38.23 111.8 38.21 111.8 38.2C111.8 38.2 111.78 38.2 111.76 38.2" fill="#AA8B2F"/>
<path d="M111.92 38.13C111.92 38.13 111.9 38.13 111.89 38.13C111.89 38.13 111.89 38.13 111.87 38.15V38.18C111.87 38.18 111.87 38.2 111.87 38.21C111.87 38.21 111.89 38.21 111.9 38.21H111.93C111.93 38.21 111.95 38.21 111.95 38.19C111.95 38.19 111.95 38.17 111.95 38.16C111.95 38.15 111.95 38.13 111.95 38.12C111.93 38.12 111.92 38.12 111.91 38.12" fill="#AA8B2F"/>
<path d="M112.04 38.05C112.04 38.05 112.02 38.05 112.01 38.05C112.01 38.05 112.01 38.0501 111.99 38.0701V38.1001C111.99 38.1001 111.99 38.1201 111.99 38.1301C111.99 38.1301 112.01 38.1301 112.02 38.1301H112.05C112.05 38.1301 112.07 38.13 112.07 38.11C112.07 38.09 112.07 38.09 112.07 38.08C112.07 38.08 112.07 38.05 112.07 38.04C112.07 38.04 112.05 38.04 112.03 38.04" fill="#AA8B2F"/>
<path d="M111.8 38.02C111.8 38.02 111.78 38.02 111.77 38.02C111.77 38.02 111.77 38.02 111.75 38.04V38.07C111.75 38.07 111.75 38.09 111.75 38.1C111.75 38.1 111.77 38.1 111.78 38.1H111.81C111.81 38.1 111.83 38.1 111.83 38.08C111.83 38.08 111.83 38.06 111.83 38.05C111.83 38.04 111.83 38.02 111.83 38.01C111.81 38.01 111.8 38.01 111.79 38.01" fill="#AA8B2F"/>
<path d="M111.93 37.92C111.93 37.92 111.91 37.92 111.9 37.92C111.9 37.92 111.9 37.92 111.88 37.94V37.97C111.88 37.97 111.89 37.99 111.89 38C111.89 38 111.91 38 111.92 38H111.95C111.95 38 111.97 38 111.97 37.98C111.97 37.96 111.97 37.96 111.97 37.95C111.97 37.94 111.97 37.92 111.97 37.91C111.97 37.91 111.94 37.91 111.93 37.91" fill="#AA8B2F"/>
<path d="M111.81 37.81C111.81 37.81 111.79 37.81 111.78 37.81C111.78 37.81 111.773 37.8167 111.76 37.83V37.86C111.76 37.86 111.76 37.88 111.76 37.89C111.76 37.89 111.78 37.89 111.79 37.89H111.82C111.82 37.89 111.84 37.89 111.84 37.87C111.84 37.87 111.84 37.85 111.84 37.84C111.84 37.83 111.84 37.81 111.84 37.8C111.84 37.8 111.81 37.8 111.8 37.8" fill="#AA8B2F"/>
<path d="M109.76 34.11C109.59 33.97 109.29 33.97 109.25 34.04C109.2 34.11 109.37 34.31 109.53 34.43C109.63 34.34 109.7 34.23 109.76 34.11Z" fill="#AA8B2F"/>
<path d="M109.61 34.47C109.61 34.47 109.58 34.47 109.57 34.47C109.57 34.47 109.57 34.49 109.57 34.51C109.57 34.53 109.57 34.54 109.57 34.55C109.57 34.55 109.59 34.55 109.61 34.55C109.61 34.55 109.64 34.55 109.65 34.55C109.66 34.55 109.66 34.53 109.66 34.51C109.66 34.49 109.66 34.48 109.65 34.47C109.65 34.47 109.62 34.47 109.61 34.47Z" fill="#AA8B2F"/>
<path d="M109.76 34.47C109.76 34.47 109.73 34.47 109.72 34.47C109.72 34.47 109.72 34.49 109.72 34.51C109.72 34.53 109.72 34.54 109.72 34.55C109.72 34.55 109.74 34.55 109.76 34.55C109.76 34.55 109.79 34.55 109.8 34.55C109.8 34.55 109.8 34.53 109.8 34.51C109.8 34.49 109.8 34.48 109.8 34.47C109.8 34.47 109.78 34.47 109.76 34.47Z" fill="#AA8B2F"/>
<path d="M109.75 34.41C109.75 34.41 109.78 34.41 109.79 34.41C109.79 34.41 109.79 34.3899 109.79 34.3699C109.79 34.3699 109.79 34.34 109.79 34.33C109.79 34.33 109.77 34.33 109.75 34.33C109.75 34.33 109.72 34.33 109.71 34.33C109.71 34.33 109.71 34.3499 109.71 34.3699V34.39C109.71 34.39 109.71 34.39 109.71 34.41C109.71 34.41 109.717 34.41 109.73 34.41H109.75Z" fill="#AA8B2F"/>
<path d="M109.92 34.3201C109.92 34.3201 109.89 34.3201 109.88 34.3201C109.88 34.3201 109.88 34.3401 109.88 34.3601C109.88 34.3801 109.88 34.3901 109.88 34.4001C109.88 34.4001 109.9 34.4001 109.92 34.4001C109.92 34.4001 109.95 34.4001 109.96 34.4001C109.96 34.4001 109.96 34.3801 109.96 34.3601C109.96 34.3401 109.96 34.3301 109.96 34.3201C109.94 34.3201 109.93 34.3201 109.92 34.3201Z" fill="#AA8B2F"/>
<path d="M109.92 34.19V34.17C109.92 34.17 109.92 34.17 109.92 34.15C109.92 34.15 109.913 34.15 109.9 34.15H109.88C109.88 34.15 109.85 34.15 109.84 34.15C109.84 34.15 109.84 34.17 109.84 34.19C109.84 34.21 109.84 34.22 109.84 34.23C109.84 34.24 109.86 34.24 109.88 34.24C109.88 34.24 109.91 34.24 109.92 34.23C109.92 34.21 109.92 34.2 109.92 34.19Z" fill="#AA8B2F"/>
<path d="M123.84 28.27C123.99 28.27 124.12 28.14 124.12 27.99C124.12 27.84 123.99 27.71 123.84 27.71C123.69 27.71 123.56 27.84 123.56 27.99C123.56 28.14 123.69 28.27 123.84 28.27Z" fill="#AA8B2F"/>
<path d="M120.34 24.64C120.34 24.64 120.44 24.59 120.47 24.54C120.5 24.49 120.52 24.44 120.52 24.39C120.52 24.34 120.5 24.28 120.47 24.23C120.43 24.18 120.4 24.15 120.34 24.13C120.3 24.11 120.23 24.1 120.18 24.11C120.12 24.11 120.08 24.15 120.03 24.19C119.98 24.24 119.97 24.28 119.95 24.34C119.95 24.4 119.95 24.45 119.97 24.5C120 24.57 120.05 24.63 120.12 24.66C120.19 24.68 120.27 24.68 120.34 24.64Z" fill="#AA8B2F"/>
<path d="M115.24 24.64C115.24 24.64 115.34 24.59 115.37 24.54C115.41 24.49 115.42 24.44 115.42 24.39C115.42 24.34 115.4 24.28 115.37 24.23C115.33 24.18 115.3 24.15 115.24 24.13C115.19 24.11 115.13 24.1 115.08 24.11C115.03 24.11 114.98 24.15 114.93 24.19C114.88 24.24 114.87 24.28 114.85 24.34C114.84 24.4 114.85 24.45 114.87 24.5C114.9 24.57 114.95 24.63 115.02 24.66C115.08 24.68 115.17 24.68 115.24 24.64Z" fill="#AA8B2F"/>
<path d="M111.52 28.27C111.67 28.27 111.8 28.14 111.8 27.99C111.8 27.84 111.67 27.71 111.52 27.71C111.37 27.71 111.24 27.84 111.24 27.99C111.24 28.14 111.37 28.27 111.52 28.27Z" fill="#AA8B2F"/>
<path d="M111.52 33.3701C111.67 33.3701 111.8 33.2401 111.8 33.0901C111.8 32.9401 111.67 32.8101 111.52 32.8101C111.37 32.8101 111.24 32.9401 111.24 33.0901C111.24 33.2401 111.37 33.3701 111.52 33.3701Z" fill="#AA8B2F"/>
<path d="M115.02 36.43C115.02 36.43 114.92 36.48 114.89 36.53C114.86 36.58 114.84 36.63 114.84 36.69C114.84 36.75 114.86 36.8 114.89 36.84C114.93 36.89 114.96 36.92 115.02 36.94C115.07 36.96 115.13 36.97 115.18 36.96C115.23 36.96 115.28 36.92 115.33 36.88C115.37 36.83 115.39 36.79 115.41 36.73C115.41 36.67 115.41 36.62 115.39 36.57C115.36 36.5 115.31 36.44 115.23 36.41C115.16 36.41 115.08 36.41 115.01 36.43" fill="#AA8B2F"/>
<path d="M120.12 36.43C120.12 36.43 120.02 36.48 119.99 36.53C119.96 36.58 119.95 36.63 119.95 36.69C119.95 36.75 119.97 36.8 119.99 36.84C120.03 36.89 120.06 36.92 120.12 36.94C120.17 36.96 120.23 36.97 120.28 36.96C120.34 36.96 120.38 36.92 120.43 36.88C120.47 36.83 120.49 36.79 120.51 36.73C120.52 36.67 120.51 36.62 120.49 36.57C120.49 36.53 120.45 36.51 120.43 36.48C120.4 36.45 120.37 36.43 120.34 36.42C120.3 36.42 120.27 36.4 120.23 36.4C120.2 36.42 120.16 36.42 120.12 36.44" fill="#AA8B2F"/>
<path d="M123.84 33.3701C123.99 33.3701 124.12 33.2401 124.12 33.0901C124.12 32.9401 123.99 32.8101 123.84 32.8101C123.69 32.8101 123.56 32.9401 123.56 33.0901C123.56 33.2401 123.69 33.3701 123.84 33.3701Z" fill="#AA8B2F"/>
<path d="M124.91 30.5001L121.28 29.0201L122.76 25.4001L119.16 26.9201L117.64 23.3101L116.16 26.9301L112.54 25.4501L114.06 29.0601L110.44 30.5701L114.07 32.0501L112.59 35.6701L116.2 34.1601L117.71 37.7601L119.19 34.1401L122.81 35.6201L121.29 32.0201L124.91 30.5001Z" fill="#AA8B2F"/>
<path fill-rule="evenodd" clip-rule="evenodd" d="M119.05 33.8L122.32 35.13L120.95 31.87L124.21 30.5L120.94 29.16L122.27 25.89L119.01 27.26L117.64 24L116.3 27.27L113.03 25.94L114.4 29.2L111.14 30.57L114.42 31.91L113.08 35.18L116.34 33.81L117.71 37.07L119.05 33.8Z" fill="white"/>
<path d="M118.04 31.87C118.04 30.54 117.49 30.2 117.49 28.88C117.49 28.37 117.6 27.86 117.78 27.38C117.67 28.71 118.79 29.55 118.79 31.34C118.79 32.46 118.35 33.11 118.02 33.11C117.81 33.11 117.82 32.97 117.72 32.97C117.62 32.97 117.52 33.13 117.3 33.13C117.08 33.13 116.36 32.77 116.25 31.2C116.12 31.52 116.23 31.98 116.3 32.22C115.85 31.42 115.88 30.46 116.53 29.48C116.4 30.5 116.48 31.33 116.79 32.08C116.85 32.24 116.97 32.33 117.08 32.24C117.18 32.16 117.08 31.99 117 31.81C116.92 31.63 116.05 29.71 117.36 28.13C117.21 29.51 117.76 30.38 117.76 31.03C117.76 31.68 117.37 32.55 117.76 32.55C117.99 32.55 118.04 32.09 118.04 31.88" fill="#EE3441"/>
<path d="M118.51 32.83C118.83 32.59 119.09 32.28 119.28 31.93C119.46 31.57 119.56 31.18 119.57 30.78C119.57 29.67 118.45 28.76 118.26 28.12C118.26 29.15 118.96 29.8 118.96 31.18C118.96 32.46 118.5 32.83 118.5 32.83" fill="#EE3441"/>
<path d="M117.32 40.14C117.32 40.14 117.27 40.14 117.26 40.17C117.24 40.17 117.22 40.2 117.21 40.22C117.15 40.29 117.07 40.33 116.98 40.35C116.95 40.35 116.92 40.34 116.9 40.33C116.87 40.33 116.85 40.3 116.84 40.28C116.47 40.45 116.14 40.65 115.89 40.8C116 40.8 116.1 40.84 116.19 40.9C116.45 40.73 116.91 40.47 117.39 40.22C117.35 40.16 117.33 40.14 117.32 40.14Z" fill="#FFC709"/>
<path d="M118.58 39.5701C118.42 39.6101 118.22 39.6801 118.03 39.7601C118.07 39.8001 118.08 39.8401 118.1 39.8901C118.33 39.7901 118.53 39.7201 118.71 39.6501C118.67 39.6501 118.62 39.6001 118.57 39.5701" fill="#FFC709"/>
<path d="M116.38 40.97C116.56 40.93 116.76 40.9399 116.93 41.0099C117.18 40.7999 117.44 40.6099 117.72 40.4299C117.63 40.4299 117.55 40.38 117.48 40.33C117.11 40.52 116.74 40.73 116.38 40.97Z" fill="#FFC709"/>
<path d="M117.98 39.09C118.17 38.84 118.37 38.61 118.6 38.4C118.31 38.49 118.01 38.7 117.79 38.9C117.84 38.93 117.89 38.97 117.94 39.02C117.96 39.05 117.98 39.08 117.99 39.09" fill="#FFC709"/>
<path d="M125.34 34.45C125.51 34.25 125.54 34.07 125.54 33.39C125.43 33.57 125.12 33.98 125.07 34.18C124.96 34.56 125.16 34.65 125.34 34.45Z" fill="#FFC709"/>
<path d="M125.19 35.13C125.36 34.98 125.5 34.7 125.56 34.4C125.36 34.65 125.14 34.65 124.99 34.81C124.71 35.12 125.01 35.29 125.18 35.13" fill="#FFC709"/>
<path d="M124.93 34.68C124.97 34.54 124.88 34.27 124.93 34.05C124.75 34.25 124.62 34.63 124.69 34.81C124.76 34.99 124.89 34.81 124.94 34.68" fill="#FFC709"/>
<path d="M124.52 35.2901C124.68 35.1301 124.44 34.7701 124.54 34.3101C124.54 34.3101 124.23 34.8101 124.19 35.0001C124.08 35.6201 124.36 35.4501 124.52 35.2801" fill="#FFC709"/>
<path d="M124.8 35.75C124.95 35.75 125.16 35.55 125.36 35.17C125.2 35.36 124.77 35.28 124.65 35.43C124.62 35.46 124.6 35.49 124.59 35.53C124.59 35.58 124.59 35.61 124.59 35.65C124.61 35.69 124.64 35.7101 124.67 35.7401C124.71 35.7601 124.75 35.77 124.79 35.76" fill="#FFC709"/>
<path d="M124.26 36.25C124.15 36.38 124.02 36.51 123.92 36.61C123.68 36.78 123.38 36.77 123.22 36.89C122.95 37.09 123.12 37.2 123.32 37.15C123.46 37.11 123.61 37 123.9 36.68C124.04 36.55 124.16 36.42 124.28 36.29C124.3 36.34 124.34 36.38 124.38 36.4C124.43 36.42 124.48 36.43 124.53 36.4C124.73 36.35 124.82 36.28 125.2 35.72C125.05 35.8 124.57 35.81 124.37 36.01C124.33 36.04 124.31 36.07 124.29 36.11C124.27 36.15 124.26 36.19 124.27 36.24" fill="#FFC709"/>
<path d="M122.71 37.11C122.73 36.88 122.66 36.91 122.88 36.52C122.79 36.58 122.4 36.89 122.4 37.18C122.4 37.59 122.69 37.34 122.71 37.12" fill="#FFC709"/>
<path d="M122.15 37.63C122.34 37.44 122.21 37.24 122.4 36.87C122.4 36.87 122.07 37.11 121.95 37.39C121.83 37.67 121.95 37.82 122.15 37.63Z" fill="#FFC709"/>
<path d="M121.68 37.98C121.93 37.73 121.75 37.54 121.91 37.24C121.78 37.38 121.59 37.51 121.47 37.72C121.33 37.97 121.43 38.23 121.68 37.98Z" fill="#FFC709"/>
<path d="M121.09 38.36C121.37 38.11 121.19 37.85 121.53 37.46C121.32 37.56 120.94 37.9 120.82 38.14C120.7 38.38 120.82 38.62 121.09 38.36Z" fill="#FFC709"/>
<path d="M120.47 38.66C120.67 38.46 120.69 38.12 120.93 37.71C120.79 37.8 120.34 38.06 120.16 38.36C119.95 38.72 120.27 38.86 120.47 38.66Z" fill="#FFC709"/>
<path d="M119.7 39.04C120.09 38.66 119.92 38.54 120.22 38.04C119.89 38.24 119.61 38.51 119.38 38.83C119.28 38.99 119.35 39.39 119.7 39.05" fill="#FFC709"/>
<path d="M118.65 39.22C118.51 39.51 118.76 39.65 118.96 39.47C119.16 39.28 119.24 38.8 119.65 38.21C119.37 38.37 118.85 38.79 118.64 39.22" fill="#FFC709"/>
<path d="M118.36 39.55C118.7 39.2 118.61 38.92 119.15 38.35C118.75 38.5 118.13 38.98 117.96 39.33C117.8 39.66 118.13 39.78 118.36 39.55Z" fill="#FFC709"/>
<path d="M116.35 41.06C116.1 41.17 116.49 41.28 116.79 41.17C117.1 41.07 116.55 40.97 116.35 41.06Z" fill="#FFC709"/>
<path d="M115.79 40.86C115.51 40.92 115.79 41.04 116.01 41C116.21 40.96 115.96 40.83 115.79 40.86Z" fill="#FFC709"/>
<path d="M120.02 41.1C120.32 41.1 120.63 41.05 120.92 40.93C120.79 40.91 120.67 40.88 120.55 40.84C120.4 40.97 120.21 41.06 120.02 41.11" fill="#FFC709"/>
<path d="M120.65 39.96C120.52 40.05 120.39 40.13 120.26 40.2C120.83 40.26 121.4 40.29 121.98 40.26C122.07 40.14 122.14 40.01 122.2 39.88C121.69 39.95 121.17 39.98 120.66 39.96" fill="#FFC709"/>
<path d="M121.46 40.54L121.83 40.34H121.62C121.57 40.4 121.51 40.48 121.46 40.54Z" fill="#FFC709"/>
<path d="M121.54 39.57L121.45 39.6C121.28 39.66 121.12 39.7 120.97 39.75C121.26 39.78 121.63 39.71 122.08 39.59C121.89 39.59 121.7 39.53 121.53 39.45C121.43 39.4 121.33 39.4 121.23 39.45H121.2C120.98 39.53 120.76 39.6 120.53 39.64C120.64 39.69 120.76 39.74 120.88 39.76C121.04 39.71 121.23 39.66 121.44 39.6L121.53 39.57H121.56V39.6H121.54" fill="#FFC709"/>
<path d="M122.44 38.41C122.55 38.36 122.66 38.31 122.76 38.26C122.67 38.24 122.57 38.23 122.48 38.23C122.38 38.28 122.28 38.33 122.17 38.37C122.15 38.39 122.14 38.42 122.13 38.43C122.2 38.45 122.29 38.43 122.36 38.43C122.36 38.43 122.4 38.42 122.44 38.4" fill="#FFC709"/>
<path d="M122.81 38.28C122.75 38.32 122.68 38.34 122.63 38.38C122.47 38.48 122.3 38.58 122.14 38.65C122.18 38.72 122.27 38.78 122.4 38.78C122.7 38.78 122.99 38.64 123.52 38.32C123.28 38.35 123.05 38.32 122.81 38.27" fill="#FFC709"/>
<path d="M123.36 37.75C123.29 37.75 123.21 37.75 123.15 37.75C123.03 37.82 122.9 37.89 122.77 37.94C122.77 37.98 122.77 38.01 122.77 38.05C122.97 37.97 123.16 37.87 123.36 37.76" fill="#FFC709"/>
<path d="M123.42 37.76C123.22 37.89 123.01 38 122.78 38.08C122.81 38.12 122.85 38.17 122.91 38.19C122.97 38.15 123.04 38.1201 123.11 38.0701V38.09C123.05 38.13 122.99 38.16 122.94 38.19C122.99 38.19 123.02 38.19 123.06 38.19C123.55 38.13 123.79 37.94 124.15 37.67C123.92 37.75 123.67 37.77 123.42 37.75" fill="#FFC709"/>
<path d="M123.88 37.14C123.88 37.14 123.83 37.17 123.81 37.19C123.68 37.29 123.55 37.39 123.41 37.46C123.41 37.49 123.41 37.52 123.43 37.54C123.57 37.47 123.69 37.38 123.81 37.28V37.3C123.69 37.4 123.56 37.49 123.43 37.57C123.47 37.6 123.5 37.61 123.55 37.62C123.6 37.62 123.63 37.62 123.68 37.62C124.15 37.52 124.49 37.11 124.49 37.11C124.3 37.15 124.09 37.17 123.88 37.16" fill="#FFC709"/>
<path d="M123.87 36.8899C123.87 36.8899 123.9 36.9499 123.92 36.9699C123.94 36.9999 123.97 37.0199 124 37.0199C124.11 36.9499 124.23 36.8599 124.39 36.7199V36.7399C124.24 36.8699 124.13 36.9599 124.02 37.0299H124.14C124.34 36.9799 124.5 36.8599 124.9 36.4299C124.68 36.4499 124.45 36.4799 124.24 36.5299C124.13 36.6599 124 36.7799 123.86 36.8899" fill="#FFC709"/>
<path d="M124.21 36.54C124.15 36.54 124.09 36.5801 124.04 36.6001C124 36.6301 123.96 36.65 123.93 36.7C123.9 36.75 123.89 36.79 123.88 36.84C124 36.75 124.11 36.65 124.22 36.54" fill="#FFC709"/>
<path d="M123.84 35.6001V35.6201C123.78 35.6901 123.72 35.7701 123.67 35.8201C123.67 35.8501 123.67 35.8701 123.69 35.9001C123.69 35.9301 123.72 35.9501 123.74 35.9601C123.85 35.8301 123.97 35.6901 124.06 35.5901C124.08 35.4301 124.06 35.2401 124.06 35.0701C123.95 35.1701 123.69 35.5201 123.67 35.7601C123.72 35.7101 123.76 35.6501 123.81 35.6001C123.81 35.6001 123.81 35.5801 123.83 35.5801" fill="#FFC709"/>
<path d="M123.95 35.9C124 35.84 124.03 35.75 124.04 35.67C123.96 35.76 123.86 35.8801 123.76 35.9901C123.8 35.9901 123.83 35.99 123.86 35.97C123.9 35.97 123.92 35.93 123.94 35.9" fill="#FFC709"/>
<path d="M122.81 37.26C122.54 37.42 122.66 37.55 122.88 37.54C123.11 37.53 123.35 37.46 123.75 37.14C123.47 37.25 123.05 37.13 122.81 37.26Z" fill="#FFC709"/>
<path d="M122.19 37.69C122.03 37.83 122.09 37.9699 122.29 37.9699C122.49 37.9699 122.69 37.93 123.17 37.66C122.72 37.7 122.43 37.49 122.19 37.69Z" fill="#FFC709"/>
<path d="M122.64 38.09C122.3 38.13 121.86 37.94 121.7 38.06C121.6 38.13 121.58 38.29 121.76 38.33C122.04 38.4 122.26 38.3 122.64 38.08" fill="#FFC709"/>
<path d="M119.09 39.5199C118.77 39.5499 118.71 39.9699 119.18 40.0199C119.65 40.0699 120.2 39.9899 120.81 39.7599C120.07 39.8199 119.48 39.4799 119.09 39.5099" fill="#FFC709"/>
<path d="M122.84 37.02C122.9 37.08 123.02 37 123.15 36.83C123.28 36.66 123.11 36.48 123.6 35.89C123.4 36.09 123.21 36.3 123.02 36.53C122.85 36.75 122.77 36.97 122.84 37.02Z" fill="#FFC709"/>
<path d="M123.36 36.43C123.19 36.67 123.43 36.82 123.61 36.65C123.67 36.59 123.73 36.5 123.78 36.43C123.93 36.29 124.21 36.02 124.41 35.81C124.24 36 124.01 36.2301 123.85 36.3801C123.91 36.2801 123.97 36.17 124.03 36.04C124.18 35.89 124.31 35.73 124.42 35.55C124.3 35.72 124.17 35.88 124.03 36.04C123.88 36.04 123.51 36.23 123.35 36.43" fill="#FFC709"/>
<path d="M118.29 39.95C118.98 40.27 120.47 40.79 121 40.86C121.06 40.6 121.1 40.37 121.1 40.37C120.06 40.28 119.36 40.2 118.46 39.89C118.4 39.91 118.29 39.95 118.29 39.95Z" fill="#FFC709"/>
<path d="M120.76 39.23H120.61C120.81 39.29 121.03 39.33 121.25 39.33C121.19 39.3 121.14 39.27 121.09 39.23C120.97 39.23 120.86 39.23 120.75 39.23" fill="#FFC709"/>
<path d="M121.13 38.44C120.88 38.61 121.01 38.78 121.22 38.79C121.42 38.81 121.84 38.74 122.25 38.5C122.05 38.54 121.45 38.22 121.13 38.45" fill="#FFC709"/>
<path d="M120.51 38.73C120.31 38.77 120.08 39.1 120.44 39.14C120.82 39.2 121.22 39.14 121.57 38.99C121.2 38.95 120.81 38.65 120.51 38.72" fill="#FFC709"/>
<path d="M121.68 38.94C121.85 38.9 122 38.8499 122.16 38.7899C122.11 38.7599 122.05 38.74 122 38.7C121.77 38.8 121.53 38.85 121.29 38.85H121.24C121.36 38.9 121.52 38.96 121.69 38.94" fill="#FFC709"/>
<path d="M122.2 38.8201C122.07 38.8701 121.95 38.91 121.84 38.94C121.62 39.04 121.4 39.12 121.17 39.19C121.2 39.23 121.23 39.2501 121.26 39.2701C121.3 39.2901 121.33 39.31 121.37 39.31H121.4C121.66 39.26 121.9 39.18 122.13 39.06V39.08C121.93 39.18 121.72 39.26 121.5 39.31C121.9 39.35 122.3 39.23 123.04 38.86C122.59 38.93 122.35 38.88 122.19 38.8" fill="#FFC709"/>
<path d="M119.77 39.13C119.45 39.19 119.43 39.48 119.71 39.56C119.97 39.63 120.4 39.63 121.21 39.38C120.7 39.38 120.11 39.06 119.78 39.13" fill="#FFC709"/>
<path d="M120.43 39.63C120.34 39.65 120.25 39.66 120.15 39.66C120.31 39.7 120.47 39.72 120.64 39.72C120.57 39.7 120.5 39.67 120.44 39.64" fill="#FFC709"/>
</svg>
