<svg width="100" height="33" viewBox="0 0 100 33" fill="none" xmlns="http://www.w3.org/2000/svg">
<path d="M34.23 24.5999L33.9 25.5899H33.48L34.55 22.4299H35.04L36.12 25.5899H35.69L35.35 24.5999H34.23ZM35.26 24.2799L34.95 23.3699C34.88 23.1599 34.83 22.9799 34.79 22.7899C34.74 22.9799 34.69 23.1699 34.63 23.3599L34.32 24.2699H35.27L35.26 24.2799Z" fill="#4F4E4E"/>
<path d="M41.05 25.3499L42.8 22.7899V22.7699H41.2001V22.4299H43.33V22.6799L41.5901 25.2299V25.2499H43.3501V25.5899H41.05V25.3499Z" fill="#4F4E4E"/>
<path d="M50.17 24.1099H48.95V25.2499H50.32V25.5899H48.54V22.4299H50.24V22.7699H48.95V23.7699H50.17V24.1099Z" fill="#4F4E4E"/>
<path d="M55.53 22.4699C55.74 22.4299 56.03 22.3999 56.31 22.3999C56.74 22.3999 57.03 22.4799 57.22 22.6599C57.38 22.7999 57.47 23.0199 57.47 23.2599C57.47 23.6799 57.21 23.9499 56.87 24.0699C57.11 24.1699 57.26 24.3899 57.33 24.7199C57.43 25.1599 57.51 25.4699 57.57 25.5899H57.15C57.1 25.4999 57.03 25.2299 56.94 24.8399C56.85 24.3999 56.68 24.2399 56.31 24.2299H55.93V25.5999H55.52V22.4799L55.53 22.4699ZM55.94 23.9099H56.36C56.8 23.9099 57.07 23.6699 57.07 23.3099C57.07 22.8999 56.78 22.7299 56.34 22.7199C56.14 22.7199 56 22.7399 55.94 22.7599V23.9099Z" fill="#4F4E4E"/>
<path d="M62.73 22.4699C62.91 22.4299 63.19 22.4099 63.47 22.4099C63.88 22.4099 64.14 22.4799 64.34 22.6399C64.5 22.7599 64.6 22.9499 64.6 23.1999C64.6 23.4999 64.4 23.7699 64.07 23.8899C64.37 23.9699 64.72 24.2199 64.72 24.6899C64.72 24.9599 64.61 25.1699 64.45 25.3199C64.23 25.5199 63.87 25.6199 63.36 25.6199C63.08 25.6199 62.86 25.5999 62.73 25.5799V22.4699ZM63.14 23.7699H63.51C63.94 23.7699 64.19 23.5399 64.19 23.2399C64.19 22.8699 63.91 22.7199 63.5 22.7199C63.31 22.7199 63.2 22.7399 63.14 22.7499V23.7699ZM63.14 25.2799C63.22 25.2899 63.34 25.2999 63.48 25.2999C63.9 25.2999 64.29 25.1499 64.29 24.6899C64.29 24.2599 63.92 24.0799 63.48 24.0799H63.14V25.2799Z" fill="#4F4E4E"/>
<path d="M70.46 24.5999L70.13 25.5899H69.71L70.78 22.4299H71.27L72.35 25.5899H71.92L71.58 24.5999H70.46ZM71.5 24.2799L71.19 23.3699C71.12 23.1599 71.07 22.9799 71.03 22.7899C70.98 22.9799 70.93 23.1699 70.87 23.3599L70.56 24.2699H71.51L71.5 24.2799Z" fill="#4F4E4E"/>
<path d="M77.91 22.4299H77.5V25.5899H77.91V22.4299Z" fill="#4F4E4E"/>
<path d="M83.95 22.4299H84.36V24.5399C84.36 25.3799 83.95 25.64 83.4 25.64C83.25 25.64 83.07 25.6099 82.96 25.5599L83.02 25.2299C83.11 25.2599 83.23 25.2899 83.36 25.2899C83.73 25.2899 83.94 25.1299 83.94 24.5099V22.4299H83.95Z" fill="#4F4E4E"/>
<path d="M90.24 24.5999L89.91 25.5899H89.49L90.56 22.4299H91.05L92.13 25.5899H91.69L91.35 24.5999H90.23H90.24ZM91.27 24.2799L90.96 23.3699C90.89 23.1599 90.84 22.9799 90.8 22.7899H90.79C90.74 22.9799 90.69 23.1699 90.63 23.3599L90.32 24.2699H91.27V24.2799Z" fill="#4F4E4E"/>
<path d="M97.27 25.5899V22.4299H97.71L98.72 24.0299C98.95 24.3999 99.14 24.7299 99.29 25.0599C99.25 24.6299 99.24 24.2499 99.24 23.7599V22.4399H99.62V25.5999H99.21L98.21 23.9999C97.99 23.6499 97.78 23.29 97.62 22.95H97.61C97.63 23.35 97.64 23.7299 97.64 24.2599V25.6099H97.26L97.27 25.5899Z" fill="#4F4E4E"/>
<path d="M32.76 19.3099L33.8 16.9899C34.92 17.8099 36.59 18.3799 38.18 18.3799C40 18.3799 40.74 17.7699 40.74 16.9599C40.74 14.4699 33.02 16.1799 33.02 11.2499C33.02 8.98988 34.84 7.10986 38.62 7.10986C40.29 7.10986 42 7.50989 43.23 8.28989L42.28 10.6199C41.05 9.91987 39.77 9.57986 38.6 9.57986C36.78 9.57986 36.08 10.2599 36.08 11.0999C36.08 13.5499 43.8 11.8599 43.8 16.7399C43.8 18.9599 41.96 20.8599 38.17 20.8599C36.06 20.8599 33.94 20.2299 32.76 19.3199" fill="#3C8BCA"/>
<path d="M48.47 9.8501H44.22V7.34009H55.8V9.8501H51.55V20.6201H48.47V9.8501Z" fill="#3C8BCA"/>
<path d="M67.7299 18.1601V20.6201H57.45V7.34009H67.4799V9.81009H60.4999V12.6901H66.67V15.0801H60.4999V18.1601H67.7299Z" fill="#3C8BCA"/>
<path d="M78.9299 17.7801H72.7599L71.5799 20.6301H68.4299L74.3499 7.3501H77.39L83.3299 20.6301H80.0999L78.92 17.7801H78.9299ZM77.9599 15.4401L75.8499 10.3501L73.7399 15.4401H77.95H77.9599Z" fill="#3C8BCA"/>
<path d="M96.8 20.6201L96.78 12.6501L92.87 19.2201H91.49L87.6 12.8301V20.6201H84.71V7.34009H87.26L92.23 15.6001L97.12 7.34009H99.65L99.68 20.6201H96.8Z" fill="#3C8BCA"/>
<path d="M6.60995 8.39999C6.71995 7.53999 7.06997 6.75001 7.58997 6.10001L6.27997 4.73999L2.23996 7.07001C1.76996 7.34001 1.34997 7.83999 1.08997 8.39999H6.60995Z" fill="#282560"/>
<path d="M15.28 23.5901L12.02 13.5101C11.75 13.5601 11.46 13.5901 11.17 13.5901C10.61 13.5901 10.08 13.4901 9.59003 13.3101L6.41003 19.4501C6.86003 19.8601 7.15002 20.4601 7.15002 21.1201C7.15002 21.2101 7.15004 21.3001 7.13004 21.3901L14.48 24.33C14.69 24.03 14.96 23.7801 15.27 23.5901" fill="#F5C41F"/>
<path d="M4.89005 18.8701C5.06005 18.8701 5.22003 18.8901 5.37003 18.9201L8.55002 12.7701C7.50002 12.0401 6.77004 10.8901 6.60004 9.57007H0.780029V13.8901L4.16003 18.9701C4.39003 18.8901 4.63004 18.8501 4.88004 18.8501" fill="#D52027"/>
<path d="M16.62 23.2201C16.82 23.2201 17.01 23.2401 17.19 23.2801L21.11 15.1301C20.27 14.5201 19.72 13.5301 19.72 12.4101C19.72 12.2901 19.72 12.1701 19.74 12.0601L15.41 10.8101C14.96 11.8401 14.16 12.6701 13.15 13.1501L16.41 23.2301C16.48 23.2301 16.56 23.2301 16.63 23.2301" fill="#F5C41F"/>
<path d="M24.98 15.1699C24.79 15.2999 24.59 15.4199 24.38 15.5099L25.25 19.2699C26.2 19.3599 26.95 20.1599 26.95 21.1299C26.95 21.4299 26.88 21.7199 26.75 21.9699L29.28 24.4999C29.58 24.0199 29.77 23.4599 29.77 22.9599V19.9499L24.99 15.1699H24.98Z" fill="#2FA6DE"/>
<path d="M14.0201 25.82C14.0201 25.69 14.02 25.55 14.05 25.43L6.70007 22.49C6.53007 22.72 6.31006 22.92 6.06006 23.07L7.68005 28.62L11.0401 30.56L14.4101 27.19C14.1601 26.79 14.0201 26.32 14.0201 25.82Z" fill="#2FA6DE"/>
<path d="M24.1 19.5299L23.23 15.7699C23.17 15.7699 23.12 15.7699 23.06 15.7699C22.75 15.7699 22.44 15.7299 22.16 15.6499L18.24 23.7999C18.35 23.8899 18.45 23.9799 18.54 24.0899L23.23 21.4899C23.21 21.3799 23.2 21.2599 23.2 21.1399C23.2 20.4599 23.56 19.8699 24.1 19.5399" fill="#2FA6DE"/>
<path d="M28.83 7.48999L25.8101 10.51C26.1901 11.05 26.4101 11.71 26.4101 12.43C26.4101 13.15 26.1901 13.8 25.8101 14.35L29.7601 18.3V9.59C29.7601 8.88 29.37 8.04999 28.83 7.48999Z" fill="#F5C41F"/>
<path d="M17.99 28.02C17.59 28.27 17.12 28.41 16.62 28.41C16.12 28.41 15.65 28.27 15.25 28.02L12.11 31.16L13.84 32.16C14.64 32.62 15.94 32.62 16.74 32.16L20.17 30.18L18.01 28.02H17.99Z" fill="#5FCBEC"/>
<path d="M4.94003 23.39C4.94003 23.39 4.91005 23.39 4.89005 23.39C3.64005 23.39 2.63004 22.38 2.63004 21.13C2.63004 20.56 2.84003 20.03 3.19003 19.64L0.790039 16.03V22.97C0.790039 23.89 1.44002 25.02 2.24002 25.48L6.22003 27.77L4.94003 23.39Z" fill="#F5C41F"/>
<path d="M25.9101 22.8C25.6601 22.93 25.3701 23 25.0701 23C24.5801 23 24.14 22.81 23.8 22.5L19.11 25.1C19.17 25.33 19.2101 25.57 19.2101 25.81C19.2101 26.31 19.0701 26.78 18.8201 27.18L21.2101 29.57L28.3201 25.47C28.3801 25.44 28.4301 25.4 28.4901 25.36L25.9201 22.79L25.9101 22.8Z" fill="#5FCBEC"/>
<path d="M15.78 8.99008C15.78 9.23008 15.76 9.47009 15.73 9.69009L20.06 10.9401C20.48 10.0901 21.25 9.44009 22.19 9.19009L21.66 3.2301L17.09 0.590088L14.09 5.4201C15.13 6.27011 15.79 7.55008 15.79 8.99008" fill="#D52027"/>
<path d="M8.43005 5.29002C9.20005 4.72002 10.1401 4.38002 11.1701 4.38002C11.8501 4.38002 12.5 4.53 13.08 4.8L15.9901 0.109998C15.2601 -0.0500016 14.4101 0.0400179 13.8201 0.380018L7.32007 4.13002L8.43005 5.28001V5.29002Z" fill="#282560"/>
<path d="M27.85 6.80994L22.89 3.94995L23.35 9.08994C23.95 9.13994 24.51 9.34993 24.98 9.67993L27.85 6.80994Z" fill="#D52027"/>
<path d="M24.38 15.5099L25.25 19.2699C26.2 19.3599 26.95 20.1599 26.95 21.1299C26.95 21.4299 26.88 21.7199 26.75 21.9699L29.28 24.4999C29.58 24.0199 29.77 23.4599 29.77 22.9599V19.9499L24.99 15.1699C24.8 15.2999 24.6 15.4199 24.39 15.5099" fill="#3C8BCA"/>
<path d="M14.0201 25.82C14.0201 25.69 14.02 25.55 14.05 25.43L6.70007 22.49C6.53007 22.72 6.31006 22.92 6.06006 23.07L7.68005 28.62L11.0401 30.56L14.4101 27.19C14.1601 26.79 14.0201 26.32 14.0201 25.82Z" fill="#3C8BCA"/>
<path d="M18.54 24.0799L23.23 21.4799C23.21 21.3699 23.2 21.2499 23.2 21.1299C23.2 20.4499 23.56 19.8599 24.1 19.5299L23.23 15.7699C23.17 15.7699 23.12 15.7699 23.06 15.7699C22.75 15.7699 22.44 15.7299 22.16 15.6499L18.24 23.7999C18.35 23.8899 18.45 23.9799 18.54 24.0799Z" fill="#3C8BCA"/>
<path d="M16.62 28.42C16.12 28.42 15.65 28.28 15.25 28.03L12.11 31.17L13.84 32.17C14.64 32.63 15.94 32.63 16.74 32.17L20.17 30.19L18.01 28.03C17.61 28.28 17.14 28.42 16.64 28.42" fill="#3C8BCA"/>
<path d="M7.13998 21.3999L14.49 24.3399C14.7 24.0399 14.97 23.7899 15.28 23.5999L12.39 14.6599C10.24 16.0499 8.27996 17.7299 6.57996 19.6299C6.93996 20.0299 7.14996 20.5599 7.14996 21.1299C7.14996 21.2199 7.14997 21.3099 7.12997 21.3999" fill="#40B656"/>
<path d="M16.6199 23.2199C16.8199 23.2199 17.0099 23.2399 17.1899 23.2799L21.1099 15.1299C20.2699 14.5199 19.7199 13.5299 19.7199 12.4099C19.7199 12.2899 19.7199 12.1699 19.7399 12.0599L18.4399 11.6799C16.6799 12.2999 15.0099 13.0799 13.4299 14.0099L16.4099 23.2199C16.4799 23.2199 16.5599 23.2199 16.6299 23.2199" fill="#40B656"/>
<path d="M26.4101 12.4201C26.4101 13.1301 26.1901 13.7901 25.8101 14.3401L29.7601 18.2901V10.1601C29.1301 10.1201 28.4901 10.1001 27.8501 10.1001C27.2801 10.1001 26.7201 10.1201 26.1701 10.1501L25.8101 10.5001C26.1901 11.0401 26.4101 11.7001 26.4101 12.4201Z" fill="#40B656"/>
<path d="M4.93997 23.3899C4.93997 23.3899 4.90998 23.3899 4.88998 23.3899C4.52998 23.3899 4.18998 23.3099 3.88998 23.1599C3.37998 23.9499 2.90997 24.7699 2.46997 25.6099L6.21997 27.7699L4.93997 23.3899Z" fill="#40B656"/>
<path d="M25.0701 23C24.5801 23 24.14 22.81 23.8 22.5L19.11 25.1C19.18 25.33 19.2101 25.57 19.2101 25.81C19.2101 26.31 19.0701 26.78 18.8201 27.18L21.2001 29.56L28.3101 25.46C28.3701 25.43 28.4201 25.39 28.4801 25.35L25.9101 22.79C25.6601 22.92 25.3701 22.99 25.0701 22.99" fill="#3C8BCA"/>
</svg>
