<svg width="127" height="43" viewBox="0 0 127 43" fill="none" xmlns="http://www.w3.org/2000/svg">
<path d="M24.76 16.5C24.4 16.97 24.06 17.47 23.74 17.99C23.64 18.16 23.55 18.33 23.45 18.51C23.23 18.48 23.01 18.44 22.79 18.39C22.29 18.29 21.8 18.15 21.32 17.99C20.89 17.84 20.47 17.67 20.06 17.47C19.32 17.12 18.62 16.69 17.97 16.19C17.61 15.92 17.26 15.63 16.94 15.31C16.32 14.72 15.76 14.07 15.28 13.36C14.38 12.04 13.73 10.54 13.41 8.90997C13.26 8.14997 13.18 7.36998 13.18 6.56998V2.58997H2.57996V22.8H5.32996C5.42996 22.8 5.52996 22.8 5.61996 22.8C6.84996 22.74 7.98996 22.28 8.89996 21.55C9.40996 21.15 9.84996 20.66 10.19 20.11C10.59 19.48 10.87 18.75 10.99 17.98C11.04 17.69 11.06 17.39 11.06 17.09V15.42C10.26 15.58 9.52996 15.92 8.89996 16.38C8.32996 16.81 7.83996 17.36 7.48996 17.98C7.10996 18.61 6.85996 19.34 6.78996 20.11H4.65997C4.71997 19.36 4.87996 18.65 5.14996 17.98C5.53996 16.96 6.14997 16.06 6.90997 15.31C7.48997 14.74 8.16997 14.27 8.90997 13.91C9.88997 13.44 10.97 13.19 12.12 13.19H13.18V17.09C13.18 17.39 13.17 17.69 13.12 17.98C13.04 18.73 12.85 19.44 12.57 20.11C12.14 21.14 11.5 22.05 10.7 22.8C10.16 23.3 9.55996 23.73 8.89996 24.06C7.82996 24.61 6.60996 24.92 5.32996 24.92H0.459961V0.469971H15.3V6.56998C15.3 7.37998 15.4 8.15997 15.58 8.90997C15.99 10.6 16.83 12.12 17.97 13.34C18.58 14 19.29 14.58 20.06 15.04C20.2 15.13 20.35 15.21 20.5 15.3C21.22 15.69 21.99 15.99 22.79 16.19C23.42 16.35 24.08 16.45 24.76 16.48" fill="#ED1848"/>
<path d="M8.89999 11.0499C8.89999 12.2299 7.93999 13.1899 6.75999 13.1899C5.57999 13.1899 4.62 12.2299 4.62 11.0499C4.62 9.8699 5.57999 8.90991 6.75999 8.90991C7.93999 8.90991 8.89999 9.8699 8.89999 11.0499Z" fill="#ED1848"/>
<path d="M33.98 6.78012C33.98 7.96012 33.02 8.92014 31.84 8.92014C30.66 8.92014 29.7 7.96012 29.7 6.78012C29.7 5.60012 30.66 4.64014 31.84 4.64014C33.02 4.64014 33.98 5.60012 33.98 6.78012Z" fill="#4DC049"/>
<path d="M38.25 31.8199C38.25 32.9999 37.29 33.9599 36.11 33.9599C34.93 33.9599 33.97 32.9999 33.97 31.8199C33.97 30.6399 34.93 29.6799 36.11 29.6799C37.29 29.6799 38.25 30.6399 38.25 31.8199Z" fill="#00A0DD"/>
<path d="M13.2099 36.1C13.2099 37.28 12.2499 38.24 11.0699 38.24C9.88993 38.24 8.92993 37.28 8.92993 36.1C8.92993 34.92 9.88993 33.96 11.0699 33.96C12.2499 33.96 13.2099 34.92 13.2099 36.1Z" fill="#F1E24C"/>
<path d="M42.43 0.469971V15.31H36.33C35.52 15.31 34.74 15.41 33.99 15.59C32.3 16 30.79 16.84 29.56 17.98C28.89 18.6 28.31 19.32 27.84 20.11C27.75 20.25 27.67 20.39 27.59 20.53C27.21 21.23 26.91 21.99 26.71 22.8C26.55 23.43 26.45 24.1 26.42 24.78C25.95 24.41 25.44 24.07 24.93 23.76C24.76 23.66 24.59 23.56 24.42 23.47C24.46 23.24 24.49 23.02 24.54 22.79C24.64 22.3 24.77 21.82 24.93 21.35C25.08 20.93 25.24 20.5 25.44 20.1C25.79 19.35 26.23 18.64 26.74 17.97C27.01 17.62 27.3 17.27 27.6 16.95C28.19 16.34 28.83 15.79 29.52 15.31C30.84 14.4 32.37 13.74 34 13.42C34.76 13.27 35.54 13.19 36.34 13.19H40.32V2.58997H20.1V5.33997C20.1 6.68997 20.57 7.92997 21.36 8.90997C21.76 9.41997 22.26 9.85996 22.81 10.21C23.44 10.6 24.16 10.88 24.93 11C25.22 11.05 25.52 11.07 25.83 11.07H27.5C27.34 10.28 27.01 9.53998 26.53 8.91998C26.11 8.33998 25.56 7.84997 24.93 7.49997C24.29 7.11997 23.58 6.87996 22.81 6.79996V4.66998C23.55 4.71998 24.26 4.88996 24.93 5.14996C25.95 5.53996 26.85 6.14997 27.6 6.90997C28.17 7.49997 28.65 8.16998 29 8.91998C29.47 9.89998 29.73 10.98 29.73 12.13V13.19H25.83C25.52 13.19 25.22 13.18 24.93 13.13C24.18 13.05 23.47 12.86 22.81 12.59C21.76 12.15 20.83 11.49 20.08 10.67C19.59 10.15 19.18 9.55998 18.85 8.91998C18.3 7.84998 17.99 6.62998 17.99 5.34998V0.47998H42.45L42.43 0.469971Z" fill="#4DC049"/>
<path d="M42.43 17.98V42.44H27.59V36.33C27.59 36.25 27.59 36.17 27.59 36.09C27.58 35.36 27.48 34.65 27.31 33.96C26.91 32.34 26.12 30.89 25.03 29.69C24.99 29.65 24.96 29.61 24.92 29.57C24.3 28.9 23.58 28.32 22.8 27.85C22.66 27.77 22.51 27.68 22.37 27.61C21.65 27.22 20.88 26.91 20.07 26.72C19.44 26.56 18.79 26.46 18.13 26.43C18.49 25.96 18.84 25.45 19.15 24.94C19.25 24.77 19.35 24.61 19.44 24.43C19.66 24.46 19.87 24.5 20.08 24.54C20.58 24.65 21.08 24.78 21.56 24.94C21.98 25.09 22.41 25.26 22.81 25.46C23.56 25.81 24.27 26.24 24.93 26.74C25.28 27.01 25.63 27.3 25.95 27.61C26.56 28.19 27.11 28.83 27.59 29.53C27.63 29.59 27.67 29.65 27.72 29.7C28.56 30.98 29.18 32.42 29.48 33.97C29.63 34.74 29.72 35.53 29.72 36.34V40.33H40.32V20.11H37.57C37.47 20.11 37.37 20.11 37.28 20.11C36.04 20.17 34.91 20.63 34 21.36C33.49 21.76 33.06 22.25 32.72 22.8C32.32 23.43 32.04 24.16 31.92 24.93C31.87 25.22 31.85 25.52 31.85 25.83V27.5C32.64 27.34 33.38 27 34 26.53C34.58 26.1 35.07 25.56 35.42 24.93C35.8 24.29 36.04 23.57 36.12 22.8H38.25C38.2 23.55 38.03 24.26 37.77 24.93C37.38 25.94 36.77 26.85 36.01 27.6C35.43 28.17 34.75 28.64 34 29C33.22 29.37 32.37 29.61 31.48 29.69C31.25 29.71 31.02 29.72 30.79 29.72H29.73V25.82C29.73 25.51 29.74 25.21 29.79 24.92C29.87 24.17 30.06 23.46 30.33 22.79C30.77 21.76 31.41 20.84 32.21 20.1C32.74 19.6 33.35 19.17 34 18.84C35.07 18.29 36.29 17.97 37.57 17.97H42.44L42.43 17.98Z" fill="#00A0DD"/>
<path d="M24.91 37.5701V42.4401H0.459961V27.6001H6.55996C6.63996 27.6001 6.72996 27.6001 6.80996 27.6001C7.52996 27.5901 8.22996 27.4901 8.89996 27.3301C10.59 26.9201 12.1 26.0801 13.33 24.9301C14.01 24.3101 14.59 23.5901 15.06 22.8001C15.14 22.6701 15.21 22.5501 15.28 22.4201C15.68 21.7001 15.98 20.9201 16.19 20.1101C16.35 19.4801 16.46 18.8101 16.48 18.1401C16.95 18.5101 17.45 18.8501 17.97 19.1601C18.14 19.2601 18.31 19.3601 18.49 19.4501C18.45 19.6701 18.42 19.9001 18.37 20.1201C18.26 20.6201 18.13 21.1101 17.97 21.5801C17.82 22.0001 17.66 22.4101 17.47 22.8101C17.11 23.5601 16.68 24.2701 16.18 24.9401C15.9 25.3101 15.6 25.6701 15.28 26.0001C14.71 26.6001 14.07 27.1401 13.39 27.6101C12.06 28.5301 10.54 29.1901 8.90997 29.5101C8.43997 29.6101 7.94996 29.6701 7.46996 29.7001C7.16996 29.7201 6.86996 29.7401 6.56996 29.7401H2.58996V40.3401H22.8V37.5901C22.8 36.2301 22.32 34.9701 21.52 33.9801C21.11 33.4801 20.61 33.0501 20.06 32.7001C19.43 32.3101 18.72 32.0401 17.97 31.9301C17.68 31.8801 17.38 31.8601 17.08 31.8601H15.41C15.57 32.6401 15.9 33.3601 16.35 33.9801C16.78 34.5701 17.34 35.0701 17.97 35.4301C18.6 35.8101 19.3 36.0501 20.06 36.1401V38.2601H20.67V38.2901C20.47 38.2901 20.26 38.2901 20.06 38.2601C20.03 38.2601 20 38.2601 19.98 38.2601C19.28 38.2001 18.61 38.0401 17.97 37.7901C16.94 37.3901 16.03 36.7801 15.28 36.0001C14.72 35.4201 14.25 34.7401 13.89 33.9801C13.44 33.0201 13.18 31.9401 13.18 30.8001V29.7401H17.08C17.38 29.7401 17.68 29.7501 17.97 29.8001C18.7 29.8801 19.41 30.0601 20.06 30.3401C21.11 30.7701 22.03 31.4201 22.79 32.2401C23.28 32.7601 23.7 33.3501 24.03 33.9901C24.59 35.0701 24.91 36.3001 24.91 37.6001" fill="#F1E24C"/>
<path d="M54.15 19.95L55.26 17.49C56.45 18.36 58.22 18.96 59.91 18.96C61.84 18.96 62.63 18.31 62.63 17.45C62.63 14.81 54.43 16.62 54.43 11.38C54.43 8.98 56.36 6.98999 60.37 6.98999C62.14 6.98999 63.96 7.40999 65.27 8.23999L64.26 10.72C62.95 9.97 61.6 9.60999 60.35 9.60999C58.42 9.60999 57.67 10.34 57.67 11.22C57.67 13.82 65.87 12.03 65.87 17.2C65.87 19.56 63.91 21.57 59.89 21.57C57.65 21.57 55.4 20.9 54.15 19.94" fill="#3C3B34"/>
<path d="M78.92 18.32H72.37L71.12 21.34H67.78L74.07 7.23999H77.29L83.6 21.34H80.17L78.92 18.32ZM77.89 15.84L75.65 10.44L73.41 15.84H77.88H77.89Z" fill="#3C3B34"/>
<path d="M89.8399 9.85999V13.59H96.3699V16.21H89.8399V21.34H86.5699V7.23999H97.2299V9.85999H89.8399Z" fill="#3C3B34"/>
<path d="M110.71 18.68V21.34H100.05V19.22L105.49 14.08C106.74 12.89 106.96 12.17 106.96 11.48C106.96 10.37 106.19 9.73001 104.7 9.73001C103.49 9.73001 102.46 10.19 101.78 11.14L99.4 9.60999C100.49 8.01999 102.46 6.98999 105 6.98999C108.14 6.98999 110.24 8.6 110.24 11.16C110.24 12.53 109.86 13.78 107.88 15.61L104.64 18.67H110.71V18.68Z" fill="#3C3B34"/>
<path d="M126.29 18.38H123.99V21.34H120.81V18.38H113.21V16.19L119.86 7.23999H123.29L117.12 15.72H120.91V13.08H123.99V15.72H126.29V18.38Z" fill="#3C3B34"/>
<path d="M57.3 27.0701H57.7V28.5901C57.32 28.9201 56.79 29.0901 56.24 29.0901C55.03 29.0901 54.15 28.2301 54.15 27.0701C54.15 25.9101 55.04 25.05 56.25 25.05C56.85 25.05 57.37 25.2401 57.73 25.6201L57.47 25.8901C57.13 25.5601 56.74 25.4201 56.27 25.4201C55.29 25.4201 54.57 26.1201 54.57 27.0701C54.57 28.0201 55.29 28.7201 56.27 28.7201C56.65 28.7201 57 28.6401 57.31 28.4101V27.0701H57.3Z" fill="#3C3B34"/>
<path d="M61.69 29.0501L60.78 27.7701C60.68 27.7801 60.58 27.7901 60.46 27.7901H59.39V29.0501H58.97V25.0801H60.46C61.47 25.0801 62.08 25.5901 62.08 26.4401C62.08 27.0601 61.75 27.5001 61.17 27.6901L62.14 29.0501H61.68H61.69ZM61.67 26.4401C61.67 25.8001 61.25 25.4401 60.46 25.4401H59.41V27.4301H60.46C61.25 27.4301 61.67 27.0601 61.67 26.4401Z" fill="#3C3B34"/>
<path d="M65.9799 28.6901V29.0501H63.1699V25.0801H65.8899V25.4401H63.5899V26.8601H65.6399V27.2101H63.5899V28.6901H65.9799Z" fill="#3C3B34"/>
<path d="M69.86 28.6901V29.0501H67.05V25.0801H69.78V25.4401H67.47V26.8601H69.53V27.2101H67.47V28.6901H69.86Z" fill="#3C3B34"/>
<path d="M74.2599 25.0801V29.0501H73.9099L71.3599 25.8301V29.0501H70.9399V25.0801H71.2899L73.8499 28.3001V25.0801H74.2599Z" fill="#3C3B34"/>
<path d="M76.84 28.5701L77.01 28.2501C77.29 28.5301 77.8 28.7301 78.32 28.7301C79.06 28.7301 79.39 28.4201 79.39 28.0301C79.39 26.9401 76.94 27.6101 76.94 26.1401C76.94 25.5501 77.39 25.05 78.4 25.05C78.85 25.05 79.31 25.1801 79.63 25.4001L79.49 25.7301C79.15 25.5101 78.75 25.4001 78.4 25.4001C77.67 25.4001 77.35 25.7201 77.35 26.1201C77.35 27.2101 79.8 26.5501 79.8 28.0001C79.8 28.5801 79.34 29.08 78.32 29.08C77.72 29.08 77.14 28.8701 76.84 28.5601" fill="#3C3B34"/>
<path d="M81.51 25.4401H80.11V25.0801H83.33V25.4401H81.93V29.0501H81.51V25.4401Z" fill="#3C3B34"/>
<path d="M86.89 28.6901V29.0501H84.09V25.0801H86.81V25.4401H84.5V26.8601H86.56V27.2101H84.5V28.6901H86.89Z" fill="#3C3B34"/>
<path d="M90.46 27.9901H88.25L87.77 29.0501H87.33L89.1499 25.0801H89.56L91.38 29.0501H90.94L90.46 27.9901ZM90.31 27.6501L89.36 25.5201L88.41 27.6501H90.32H90.31Z" fill="#3C3B34"/>
<path d="M96.25 25.0801V29.0501H95.85V25.8701L94.29 28.5501H94.09L92.53 25.8901V29.0501H92.13V25.0801H92.47L94.2 28.0301L95.91 25.0801H96.25Z" fill="#3C3B34"/>
<path d="M99.63 25.4401V27.0001H101.68V27.3701H99.63V29.0501H99.21V25.0801H101.93V25.4401H99.63Z" fill="#3C3B34"/>
<path d="M105.7 28.6901V29.0501H102.89V25.0801H105.61V25.4401H103.31V26.8601H105.36V27.2101H103.31V28.6901H105.7Z" fill="#3C3B34"/>
<path d="M106.4 28.5701L106.56 28.2501C106.84 28.5301 107.35 28.7301 107.87 28.7301C108.61 28.7301 108.94 28.4201 108.94 28.0301C108.94 26.9401 106.49 27.6101 106.49 26.1401C106.49 25.5501 106.94 25.05 107.95 25.05C108.4 25.05 108.86 25.1801 109.18 25.4001L109.04 25.7301C108.7 25.5101 108.3 25.4001 107.95 25.4001C107.22 25.4001 106.9 25.7201 106.9 26.1201C106.9 27.2101 109.35 26.5501 109.35 28.0001C109.35 28.5801 108.88 29.08 107.87 29.08C107.27 29.08 106.69 28.8701 106.39 28.5601" fill="#3C3B34"/>
<path d="M111.07 25.4401H109.67V25.0801H112.89V25.4401H111.49V29.0501H111.07V25.4401Z" fill="#3C3B34"/>
<path d="M114.06 25.0801H113.64V29.0501H114.06V25.0801Z" fill="#3C3B34"/>
<path d="M118.7 25.0801L116.94 29.0501H116.53L114.77 25.0801H115.23L116.75 28.5301L118.28 25.0801H118.7Z" fill="#3C3B34"/>
<path d="M121.74 27.9901H119.53L119.05 29.0501H118.61L120.43 25.0801H120.85L122.67 29.0501H122.23L121.75 27.9901H121.74ZM121.58 27.6501L120.63 25.5201L119.68 27.6501H121.59H121.58Z" fill="#3C3B34"/>
<path d="M123.4 25.0801H123.82V28.6901H126.05V29.0501H123.4V25.0801Z" fill="#3C3B34"/>
<path d="M57.29 34.9401H55.3L54.91 35.8601H54.15L55.94 31.8901H56.67L58.46 35.8601H57.69L57.29 34.9401ZM57.05 34.3601L56.3 32.6201L55.56 34.3601H57.05Z" fill="#3C3B34"/>
<path d="M62.62 35.2301V35.8601H59.23V35.3701L61.57 32.5101H59.27V31.8901H62.54V32.3801L60.2 35.2301H62.62Z" fill="#3C3B34"/>
<path d="M66.84 35.2401V35.8601H63.86V31.8901H66.76V32.5001H64.59V33.5401H66.51V34.1401H64.59V35.2401H66.84Z" fill="#3C3B34"/>
<path d="M70.82 35.8601L70.01 34.7001C69.96 34.7001 69.91 34.7001 69.86 34.7001H68.96V35.8601H68.22V31.8901H69.86C70.91 31.8901 71.55 32.4201 71.55 33.3001C71.55 33.9001 71.24 34.3401 70.7 34.5501L71.61 35.8601H70.82ZM69.82 32.5101H68.96V34.0901H69.82C70.47 34.0901 70.8 33.7901 70.8 33.3001C70.8 32.8101 70.46 32.5101 69.82 32.5101Z" fill="#3C3B34"/>
<path d="M76.4699 34.7801C76.4699 35.4601 75.9399 35.8601 74.9199 35.8601H72.9399V31.8901H74.7999C75.7499 31.8901 76.2599 32.2901 76.2599 32.9201C76.2599 33.3301 76.0599 33.6301 75.7499 33.7901C76.1799 33.9201 76.4699 34.2601 76.4699 34.7801ZM73.6699 32.4601V33.5601H74.7199C75.2299 33.5601 75.5199 33.3801 75.5199 33.0101C75.5199 32.6401 75.2299 32.4601 74.7199 32.4601H73.6699ZM75.7199 34.7101C75.7199 34.3101 75.4199 34.1401 74.8599 34.1401H73.6699V35.2901H74.8599C75.4199 35.2901 75.7199 35.1201 75.7199 34.7201V34.7101Z" fill="#3C3B34"/>
<path d="M80.39 34.9401H78.4L78.01 35.8601H77.25L79.04 31.8901H79.77L81.56 35.8601H80.79L80.39 34.9401ZM80.15 34.3601L79.4 32.6201L78.66 34.3601H80.15Z" fill="#3C3B34"/>
<path d="M83.37 31.8901H82.63V35.8601H83.37V31.8901Z" fill="#3C3B34"/>
<path d="M84.4 35.3401L84.82 34.8401C85.04 35.1301 85.3 35.2901 85.61 35.2901C86.02 35.2901 86.23 35.0501 86.23 34.5601V32.5101H84.82V31.8901H86.97V34.5201C86.97 35.4601 86.51 35.9201 85.63 35.9201C85.13 35.9201 84.68 35.7201 84.4 35.3501" fill="#3C3B34"/>
<path d="M91.0599 34.9401H89.0699L88.6799 35.8601H87.9199L89.7099 31.8901H90.4399L92.2299 35.8601H91.4599L91.0599 34.9401ZM90.8099 34.3601L90.0599 32.6201L89.3199 34.3601H90.8099Z" fill="#3C3B34"/>
<path d="M96.83 31.8901V35.8601H96.22L94.03 33.1701V35.8601H93.3V31.8901H93.9L96.09 34.5801V31.8901H96.83Z" fill="#3C3B34"/>
</svg>
